<svg width="1152" height="700" viewBox="0 0 1152 700" fill="none" xmlns="http://www.w3.org/2000/svg">
<path d="M131.834 -167.22C134.888 -170.412 139.952 -170.524 143.145 -167.47L305.381 -12.2486C308.574 -9.19421 308.685 -4.13014 305.631 -0.937678L5.32794 312.938C2.27353 316.131 -2.79056 316.243 -5.98301 313.188L-168.22 157.968C-171.412 154.913 -171.524 149.849 -168.47 146.657L131.834 -167.22Z" fill="white"/>
<path d="M127.244 -150.851L289.481 4.3702L321.281 -28.8674L159.045 -184.088L127.244 -150.851ZM289.012 -16.8378L-11.2909 297.038L21.9467 328.839L322.25 14.9625L289.012 -16.8378ZM9.91715 296.57L-152.319 141.349L-184.12 174.586L-21.8832 329.807L9.91715 296.57ZM-151.851 162.557L148.452 -151.319L115.215 -183.12L-185.088 130.756L-151.851 162.557ZM-152.319 141.349C-146.334 147.076 -146.124 156.571 -151.851 162.557L-185.088 130.756C-196.924 143.127 -196.491 162.751 -184.12 174.586L-152.319 141.349ZM-11.2909 297.038C-5.56387 291.052 3.9313 290.843 9.91715 296.57L-21.8832 329.807C-9.51241 341.643 10.1109 341.209 21.9467 328.839L-11.2909 297.038ZM289.481 4.3702C283.495 -1.35684 283.285 -10.852 289.012 -16.8378L322.25 14.9625C334.086 2.59174 333.652 -17.0316 321.281 -28.8674L289.481 4.3702ZM159.045 -184.088C146.674 -195.924 127.051 -195.49 115.215 -183.12L148.452 -151.319C142.725 -145.334 133.23 -145.124 127.244 -150.851L159.045 -184.088Z" fill="#0047FF"/>
<path d="M99.8336 286.78C102.888 283.588 107.952 283.476 111.145 286.53L273.381 441.751C276.574 444.806 276.685 449.87 273.631 453.062L-26.6721 766.938C-29.7265 770.131 -34.7906 770.243 -37.983 767.188L-200.22 611.968C-203.412 608.913 -203.524 603.849 -200.47 600.657L99.8336 286.78Z" fill="white"/>
<path d="M95.2444 303.149L257.481 458.37L289.281 425.133L127.045 269.912L95.2444 303.149ZM257.012 437.162L-43.2909 751.038L-10.0533 782.839L290.25 468.962L257.012 437.162ZM-22.0829 750.57L-184.319 595.349L-216.12 628.586L-53.8832 783.807L-22.0829 750.57ZM-183.851 616.557L116.452 302.681L83.2148 270.88L-217.088 584.756L-183.851 616.557ZM-184.319 595.349C-178.334 601.076 -178.124 610.571 -183.851 616.557L-217.088 584.756C-228.924 597.127 -228.491 616.751 -216.12 628.586L-184.319 595.349ZM-43.2909 751.038C-37.5639 745.052 -28.0687 744.843 -22.0829 750.57L-53.8832 783.807C-41.5124 795.643 -21.8891 795.209 -10.0533 782.839L-43.2909 751.038ZM257.481 458.37C251.495 452.643 251.285 443.148 257.012 437.162L290.25 468.962C302.086 456.592 301.652 436.968 289.281 425.133L257.481 458.37ZM127.045 269.912C114.674 258.076 95.0506 258.51 83.2148 270.88L116.452 302.681C110.725 308.666 101.23 308.876 95.2444 303.149L127.045 269.912Z" fill="#2147A8"/>
<path d="M1146.83 -38.2195C1149.89 -41.412 1154.95 -41.5239 1158.14 -38.4695L1320.38 116.751C1323.57 119.806 1323.69 124.87 1320.63 128.062L1020.33 441.938C1017.27 445.131 1012.21 445.243 1009.02 442.188L846.78 286.968C843.588 283.913 843.476 278.849 846.53 275.657L1146.83 -38.2195Z" fill="white"/>
<path d="M1142.24 -21.8507L1304.48 133.37L1336.28 100.133L1174.04 -55.0883L1142.24 -21.8507ZM1304.01 112.162L1003.71 426.038L1036.95 457.839L1337.25 143.962L1304.01 112.162ZM1024.92 425.57L862.681 270.349L830.88 303.586L993.117 458.807L1024.92 425.57ZM863.149 291.557L1163.45 -22.3194L1130.21 -54.1197L829.912 259.756L863.149 291.557ZM862.681 270.349C868.666 276.076 868.876 285.571 863.149 291.557L829.912 259.756C818.076 272.127 818.509 291.751 830.88 303.586L862.681 270.349ZM1003.71 426.038C1009.44 420.052 1018.93 419.843 1024.92 425.57L993.117 458.807C1005.49 470.643 1025.11 470.209 1036.95 457.839L1003.71 426.038ZM1304.48 133.37C1298.49 127.643 1298.29 118.148 1304.01 112.162L1337.25 143.962C1349.09 131.592 1348.65 111.968 1336.28 100.133L1304.48 133.37ZM1174.04 -55.0883C1161.67 -66.9241 1142.05 -66.4905 1130.21 -54.1197L1163.45 -22.3194C1157.73 -16.3335 1148.23 -16.1237 1142.24 -21.8507L1174.04 -55.0883Z" fill="#2147A8"/>
<path d="M1159.83 405.78C1162.89 402.588 1167.95 402.476 1171.14 405.53L1333.38 560.751C1336.57 563.806 1336.69 568.87 1333.63 572.062L1033.33 885.938C1030.27 889.131 1025.21 889.243 1022.02 886.188L859.78 730.968C856.588 727.913 856.476 722.849 859.53 719.657L1159.83 405.78Z" fill="white"/>
<path d="M1155.24 422.149L1317.48 577.37L1349.28 544.133L1187.04 388.912L1155.24 422.149ZM1317.01 556.162L1016.71 870.038L1049.95 901.839L1350.25 587.962L1317.01 556.162ZM1037.92 869.57L875.681 714.349L843.88 747.586L1006.12 902.807L1037.92 869.57ZM876.149 735.557L1176.45 421.681L1143.21 389.88L842.912 703.756L876.149 735.557ZM875.681 714.349C881.666 720.076 881.876 729.571 876.149 735.557L842.912 703.756C831.076 716.127 831.509 735.751 843.88 747.586L875.681 714.349ZM1016.71 870.038C1022.44 864.052 1031.93 863.843 1037.92 869.57L1006.12 902.807C1018.49 914.643 1038.11 914.209 1049.95 901.839L1016.71 870.038ZM1317.48 577.37C1311.49 571.643 1311.29 562.148 1317.01 556.162L1350.25 587.962C1362.09 575.592 1361.65 555.968 1349.28 544.133L1317.48 577.37ZM1187.04 388.912C1174.67 377.076 1155.05 377.51 1143.21 389.88L1176.45 421.681C1170.73 427.666 1161.23 427.876 1155.24 422.149L1187.04 388.912Z" fill="#0047FF"/>
</svg>
