<svg width="1440" height="100" viewBox="0 0 1440 100" fill="none" xmlns="http://www.w3.org/2000/svg">
<rect width="1440" height="100" fill="#EDEDED"/>
<path d="M99.14 58.11C98.0987 58.11 97.1307 57.8973 96.236 57.472C95.356 57.0467 94.5787 56.46 93.904 55.712C93.244 54.964 92.7233 54.1133 92.342 53.16C91.9753 52.2067 91.792 51.1947 91.792 50.124C91.792 49.068 91.9753 48.0707 92.342 47.132C92.7087 46.1787 93.2293 45.3427 93.904 44.624C94.5787 43.8907 95.3633 43.3187 96.258 42.908C97.1673 42.4827 98.1573 42.27 99.228 42.27C100.709 42.27 101.956 42.5853 102.968 43.216C103.98 43.832 104.75 44.6533 105.278 45.68L103.386 47.044C102.961 46.1933 102.374 45.5553 101.626 45.13C100.878 44.7047 100.057 44.492 99.162 44.492C98.1793 44.492 97.3213 44.7633 96.588 45.306C95.8547 45.834 95.29 46.5307 94.894 47.396C94.498 48.2613 94.3 49.1927 94.3 50.19C94.3 51.246 94.52 52.2067 94.96 53.072C95.4 53.9227 95.994 54.6047 96.742 55.118C97.5047 55.6313 98.37 55.888 99.338 55.888C100.951 55.888 102.403 55.118 103.694 53.578V51.928H100.416V50.102H105.762V58H103.694V56.064C102.389 57.428 100.871 58.11 99.14 58.11ZM119.727 55.822V58H109.013V42.38H119.529V44.558H111.477V49.002H118.451V51.048H111.477V55.822H119.727ZM134.17 44.558H128.978V58H126.492V44.558H121.278V42.38H134.17V44.558ZM152.629 55.822V58H141.915V42.38H152.431V44.558H144.379V49.002H151.353V51.048H144.379V55.822H152.629ZM156.6 42.38L160.912 48.518L165.224 42.38H167.952L162.32 50.3L167.776 58H165.048L160.912 52.082L156.776 58H154.026L159.482 50.3L153.85 42.38H156.6ZM181.606 44.558H176.414V58H173.928V44.558H168.714V42.38H181.606V44.558ZM194.855 55.822V58H184.141V42.38H194.657V44.558H186.605V49.002H193.579V51.048H186.605V55.822H194.855ZM200.301 46.956V58H197.837V42.38H199.861L208.705 53.666V42.402H211.191V58H209.035L200.301 46.956ZM224.382 46.054C224.191 45.834 223.876 45.6067 223.436 45.372C223.011 45.1227 222.512 44.91 221.94 44.734C221.368 44.558 220.774 44.47 220.158 44.47C219.117 44.47 218.347 44.6607 217.848 45.042C217.364 45.4233 217.122 45.9513 217.122 46.626C217.122 47.1247 217.261 47.5207 217.54 47.814C217.819 48.0927 218.244 48.3347 218.816 48.54C219.388 48.7307 220.107 48.9287 220.972 49.134C222.028 49.3833 222.937 49.684 223.7 50.036C224.477 50.3733 225.071 50.828 225.482 51.4C225.907 51.972 226.12 52.7273 226.12 53.666C226.12 54.7367 225.863 55.602 225.35 56.262C224.837 56.922 224.14 57.406 223.26 57.714C222.395 58.0073 221.441 58.154 220.4 58.154C219.212 58.154 218.061 57.9707 216.946 57.604C215.831 57.2373 214.834 56.7167 213.954 56.042L215.076 53.93C215.325 54.1793 215.721 54.4653 216.264 54.788C216.807 55.096 217.437 55.3673 218.156 55.602C218.889 55.822 219.652 55.932 220.444 55.932C221.412 55.932 222.16 55.7633 222.688 55.426C223.216 55.074 223.48 54.5753 223.48 53.93C223.48 53.402 223.304 52.984 222.952 52.676C222.615 52.3533 222.123 52.0893 221.478 51.884C220.847 51.664 220.085 51.4367 219.19 51.202C218.163 50.938 217.305 50.6373 216.616 50.3C215.927 49.9627 215.406 49.5373 215.054 49.024C214.717 48.5107 214.548 47.8433 214.548 47.022C214.548 45.9953 214.797 45.13 215.296 44.426C215.795 43.7073 216.469 43.172 217.32 42.82C218.185 42.4533 219.153 42.27 220.224 42.27C221.28 42.27 222.255 42.4387 223.15 42.776C224.045 43.1133 224.829 43.5313 225.504 44.03L224.382 46.054ZM229.031 58V42.38H231.495V58H229.031ZM241.955 58.11C240.841 58.11 239.821 57.89 238.897 57.45C237.988 57.01 237.203 56.416 236.543 55.668C235.883 54.9053 235.37 54.0547 235.003 53.116C234.651 52.1627 234.475 51.1873 234.475 50.19C234.475 49.1487 234.666 48.1587 235.047 47.22C235.429 46.2667 235.957 45.4233 236.631 44.69C237.306 43.942 238.098 43.3553 239.007 42.93C239.931 42.49 240.929 42.27 241.999 42.27C243.114 42.27 244.126 42.4973 245.035 42.952C245.959 43.4067 246.744 44.0153 247.389 44.778C248.049 45.5407 248.555 46.3913 248.907 47.33C249.274 48.2687 249.457 49.2293 249.457 50.212C249.457 51.2533 249.267 52.2507 248.885 53.204C248.519 54.1427 247.998 54.986 247.323 55.734C246.649 56.4673 245.849 57.0467 244.925 57.472C244.016 57.8973 243.026 58.11 241.955 58.11ZM236.983 50.19C236.983 51.1727 237.189 52.104 237.599 52.984C238.01 53.8493 238.582 54.5533 239.315 55.096C240.063 55.624 240.951 55.888 241.977 55.888C242.755 55.888 243.451 55.7267 244.067 55.404C244.683 55.0813 245.204 54.6487 245.629 54.106C246.055 53.5487 246.377 52.9327 246.597 52.258C246.817 51.5833 246.927 50.894 246.927 50.19C246.927 49.2073 246.722 48.2833 246.311 47.418C245.915 46.5527 245.343 45.856 244.595 45.328C243.847 44.7853 242.975 44.514 241.977 44.514C241.185 44.514 240.481 44.6753 239.865 44.998C239.249 45.3207 238.729 45.7533 238.303 46.296C237.878 46.8387 237.548 47.4473 237.313 48.122C237.093 48.7967 236.983 49.486 236.983 50.19ZM254.912 46.956V58H252.448V42.38H254.472L263.316 53.666V42.402H265.802V58H263.646L254.912 46.956Z" fill="black"/>
<path d="M329.222 44.558H324.03V58H321.544V44.558H316.33V42.38H329.222V44.558ZM342.471 55.822V58H331.757V42.38H342.273V44.558H334.221V49.002H341.195V51.048H334.221V55.822H342.471ZM349.962 42.38H352.294L358.367 58H355.77L354.12 53.754H348.092L346.464 58H343.846L349.962 42.38ZM353.636 51.928L351.128 45.086L348.532 51.928H353.636ZM373.872 58V46.868L369.274 55.316H367.822L363.202 46.868V58H360.738V42.38H363.378L368.548 51.928L373.718 42.38H376.358V58H373.872Z" fill="black"/>
<path d="M428.76 58V42.38H439.166V44.558H431.224V49.222H437.868V51.268H431.224V58H428.76ZM445.29 42.38H447.622L453.694 58H451.098L449.448 53.754H443.42L441.792 58H439.174L445.29 42.38ZM448.964 51.928L446.456 45.086L443.86 51.928H448.964ZM461.954 58.11C460.84 58.11 459.82 57.89 458.896 57.45C457.987 56.9953 457.202 56.394 456.542 55.646C455.882 54.898 455.369 54.0547 455.002 53.116C454.65 52.1627 454.474 51.1873 454.474 50.19C454.474 49.1487 454.665 48.1587 455.046 47.22C455.428 46.2667 455.956 45.4233 456.63 44.69C457.305 43.942 458.097 43.3553 459.006 42.93C459.93 42.49 460.928 42.27 461.998 42.27C463.113 42.27 464.125 42.4973 465.034 42.952C465.958 43.4067 466.743 44.0153 467.388 44.778C468.048 45.5407 468.554 46.3913 468.906 47.33C469.273 48.2687 469.456 49.2293 469.456 50.212C469.456 51.2387 469.273 52.2213 468.906 53.16C468.54 54.0987 468.026 54.9347 467.366 55.668L469.412 58H467.036L466.024 56.856C465.452 57.252 464.822 57.56 464.132 57.78C463.443 58 462.717 58.11 461.954 58.11ZM461.976 55.888C462.46 55.888 462.915 55.822 463.34 55.69C463.766 55.558 464.162 55.3747 464.528 55.14L462.284 52.566H464.66L465.804 53.864C466.171 53.3507 466.45 52.7713 466.64 52.126C466.831 51.4807 466.926 50.8353 466.926 50.19C466.926 49.2073 466.721 48.2833 466.31 47.418C465.914 46.538 465.342 45.834 464.594 45.306C463.846 44.7633 462.974 44.492 461.976 44.492C461.184 44.492 460.48 44.6533 459.864 44.976C459.248 45.2987 458.728 45.7387 458.302 46.296C457.877 46.8387 457.547 47.4473 457.312 48.122C457.092 48.7967 456.982 49.486 456.982 50.19C456.982 51.1727 457.188 52.104 457.598 52.984C458.009 53.8493 458.581 54.5533 459.314 55.096C460.062 55.624 460.95 55.888 461.976 55.888ZM481.623 46.054C481.432 45.834 481.117 45.6067 480.677 45.372C480.251 45.1227 479.753 44.91 479.181 44.734C478.609 44.558 478.015 44.47 477.399 44.47C476.357 44.47 475.587 44.6607 475.089 45.042C474.605 45.4233 474.363 45.9513 474.363 46.626C474.363 47.1247 474.502 47.5207 474.781 47.814C475.059 48.0927 475.485 48.3347 476.057 48.54C476.629 48.7307 477.347 48.9287 478.213 49.134C479.269 49.3833 480.178 49.684 480.941 50.036C481.718 50.3733 482.312 50.828 482.723 51.4C483.148 51.972 483.361 52.7273 483.361 53.666C483.361 54.7367 483.104 55.602 482.591 56.262C482.077 56.922 481.381 57.406 480.501 57.714C479.635 58.0073 478.682 58.154 477.641 58.154C476.453 58.154 475.301 57.9707 474.187 57.604C473.072 57.2373 472.075 56.7167 471.195 56.042L472.317 53.93C472.566 54.1793 472.962 54.4653 473.505 54.788C474.047 55.096 474.678 55.3673 475.397 55.602C476.13 55.822 476.893 55.932 477.685 55.932C478.653 55.932 479.401 55.7633 479.929 55.426C480.457 55.074 480.721 54.5753 480.721 53.93C480.721 53.402 480.545 52.984 480.193 52.676C479.855 52.3533 479.364 52.0893 478.719 51.884C478.088 51.664 477.325 51.4367 476.431 51.202C475.404 50.938 474.546 50.6373 473.857 50.3C473.167 49.9627 472.647 49.5373 472.295 49.024C471.957 48.5107 471.789 47.8433 471.789 47.022C471.789 45.9953 472.038 45.13 472.537 44.426C473.035 43.7073 473.71 43.172 474.561 42.82C475.426 42.4533 476.394 42.27 477.465 42.27C478.521 42.27 479.496 42.4387 480.391 42.776C481.285 43.1133 482.07 43.5313 482.745 44.03L481.623 46.054Z" fill="black"/>
<path d="M533.77 50.08C533.77 49.1267 533.939 48.188 534.276 47.264C534.613 46.34 535.105 45.504 535.75 44.756C536.41 44.008 537.202 43.414 538.126 42.974C539.065 42.5193 540.135 42.292 541.338 42.292C542.746 42.292 543.963 42.6073 544.99 43.238C546.017 43.8687 546.779 44.69 547.278 45.702L545.342 47C545.049 46.3693 544.675 45.878 544.22 45.526C543.78 45.1593 543.296 44.9027 542.768 44.756C542.255 44.5947 541.749 44.514 541.25 44.514C540.429 44.514 539.71 44.6827 539.094 45.02C538.478 45.3427 537.957 45.7753 537.532 46.318C537.121 46.8607 536.806 47.4693 536.586 48.144C536.381 48.8187 536.278 49.4933 536.278 50.168C536.278 51.18 536.491 52.126 536.916 53.006C537.356 53.8713 537.95 54.5753 538.698 55.118C539.461 55.646 540.333 55.91 541.316 55.91C541.815 55.91 542.335 55.822 542.878 55.646C543.421 55.47 543.919 55.1987 544.374 54.832C544.829 54.4507 545.195 53.952 545.474 53.336L547.52 54.502C547.197 55.2793 546.691 55.9393 546.002 56.482C545.327 57.0247 544.565 57.4353 543.714 57.714C542.878 57.9927 542.049 58.132 541.228 58.132C540.128 58.132 539.123 57.9047 538.214 57.45C537.305 56.9807 536.52 56.3647 535.86 55.602C535.2 54.8247 534.687 53.9593 534.32 53.006C533.953 52.038 533.77 51.0627 533.77 50.08ZM556.536 58.11C555.421 58.11 554.402 57.89 553.478 57.45C552.568 57.01 551.784 56.416 551.124 55.668C550.464 54.9053 549.95 54.0547 549.584 53.116C549.232 52.1627 549.056 51.1873 549.056 50.19C549.056 49.1487 549.246 48.1587 549.628 47.22C550.009 46.2667 550.537 45.4233 551.212 44.69C551.886 43.942 552.678 43.3553 553.588 42.93C554.512 42.49 555.509 42.27 556.58 42.27C557.694 42.27 558.706 42.4973 559.616 42.952C560.54 43.4067 561.324 44.0153 561.97 44.778C562.63 45.5407 563.136 46.3913 563.488 47.33C563.854 48.2687 564.038 49.2293 564.038 50.212C564.038 51.2533 563.847 52.2507 563.466 53.204C563.099 54.1427 562.578 54.986 561.904 55.734C561.229 56.4673 560.43 57.0467 559.506 57.472C558.596 57.8973 557.606 58.11 556.536 58.11ZM551.564 50.19C551.564 51.1727 551.769 52.104 552.18 52.984C552.59 53.8493 553.162 54.5533 553.896 55.096C554.644 55.624 555.531 55.888 556.558 55.888C557.335 55.888 558.032 55.7267 558.648 55.404C559.264 55.0813 559.784 54.6487 560.21 54.106C560.635 53.5487 560.958 52.9327 561.178 52.258C561.398 51.5833 561.508 50.894 561.508 50.19C561.508 49.2073 561.302 48.2833 560.892 47.418C560.496 46.5527 559.924 45.856 559.176 45.328C558.428 44.7853 557.555 44.514 556.558 44.514C555.766 44.514 555.062 44.6753 554.446 44.998C553.83 45.3207 553.309 45.7533 552.884 46.296C552.458 46.8387 552.128 47.4473 551.894 48.122C551.674 48.7967 551.564 49.486 551.564 50.19ZM569.493 46.956V58H567.029V42.38H569.053L577.897 53.666V42.402H580.383V58H578.227L569.493 46.956ZM595.796 44.558H590.604V58H588.118V44.558H582.904V42.38H595.796V44.558ZM601.358 42.38H603.69L609.762 58H607.166L605.516 53.754H599.488L597.86 58H595.242L601.358 42.38ZM605.032 51.928L602.524 45.086L599.928 51.928H605.032ZM610.542 50.08C610.542 49.1267 610.711 48.188 611.048 47.264C611.386 46.34 611.877 45.504 612.522 44.756C613.182 44.008 613.974 43.414 614.898 42.974C615.837 42.5193 616.908 42.292 618.11 42.292C619.518 42.292 620.736 42.6073 621.762 43.238C622.789 43.8687 623.552 44.69 624.05 45.702L622.114 47C621.821 46.3693 621.447 45.878 620.992 45.526C620.552 45.1593 620.068 44.9027 619.54 44.756C619.027 44.5947 618.521 44.514 618.022 44.514C617.201 44.514 616.482 44.6827 615.866 45.02C615.25 45.3427 614.73 45.7753 614.304 46.318C613.894 46.8607 613.578 47.4693 613.358 48.144C613.153 48.8187 613.05 49.4933 613.05 50.168C613.05 51.18 613.263 52.126 613.688 53.006C614.128 53.8713 614.722 54.5753 615.47 55.118C616.233 55.646 617.106 55.91 618.088 55.91C618.587 55.91 619.108 55.822 619.65 55.646C620.193 55.47 620.692 55.1987 621.146 54.832C621.601 54.4507 621.968 53.952 622.246 53.336L624.292 54.502C623.97 55.2793 623.464 55.9393 622.774 56.482C622.1 57.0247 621.337 57.4353 620.486 57.714C619.65 57.9927 618.822 58.132 618 58.132C616.9 58.132 615.896 57.9047 614.986 57.45C614.077 56.9807 613.292 56.3647 612.632 55.602C611.972 54.8247 611.459 53.9593 611.092 53.006C610.726 52.038 610.542 51.0627 610.542 50.08ZM638.473 44.558H633.281V58H630.795V44.558H625.581V42.38H638.473V44.558Z" fill="black"/>
<path d="M1222.17 58.154C1221 58.154 1219.92 57.956 1218.92 57.56C1217.92 57.164 1217.06 56.6067 1216.32 55.888C1215.59 55.1693 1215.02 54.326 1214.61 53.358C1214.2 52.39 1213.99 51.334 1213.99 50.19C1213.99 49.0607 1214.2 48.012 1214.61 47.044C1215.02 46.076 1215.59 45.24 1216.32 44.536C1217.06 43.8173 1217.92 43.26 1218.92 42.864C1219.92 42.468 1221 42.27 1222.17 42.27C1223.36 42.27 1224.45 42.468 1225.45 42.864C1226.46 43.26 1227.34 43.8173 1228.09 44.536C1228.84 45.24 1229.42 46.076 1229.83 47.044C1230.26 48.012 1230.47 49.0607 1230.47 50.19C1230.47 51.334 1230.26 52.39 1229.83 53.358C1229.42 54.326 1228.84 55.1693 1228.09 55.888C1227.34 56.6067 1226.46 57.164 1225.45 57.56C1224.45 57.956 1223.36 58.154 1222.17 58.154ZM1222.17 57.098C1223.51 57.098 1224.71 56.812 1225.78 56.24C1226.87 55.6533 1227.73 54.8467 1228.36 53.82C1229 52.7787 1229.32 51.5833 1229.32 50.234C1229.32 49.2513 1229.14 48.342 1228.77 47.506C1228.42 46.67 1227.92 45.944 1227.28 45.328C1226.63 44.6973 1225.88 44.206 1225.01 43.854C1224.15 43.502 1223.2 43.326 1222.17 43.326C1221.16 43.326 1220.22 43.502 1219.36 43.854C1218.51 44.206 1217.77 44.6973 1217.14 45.328C1216.51 45.944 1216.01 46.67 1215.64 47.506C1215.29 48.342 1215.11 49.244 1215.11 50.212C1215.11 51.18 1215.29 52.082 1215.64 52.918C1215.99 53.754 1216.48 54.4873 1217.11 55.118C1217.76 55.734 1218.51 56.218 1219.36 56.57C1220.22 56.922 1221.16 57.098 1222.17 57.098ZM1222.35 55.338C1221.34 55.338 1220.43 55.118 1219.62 54.678C1218.82 54.238 1218.18 53.6293 1217.71 52.852C1217.24 52.0747 1217 51.1873 1217 50.19C1217 49.3393 1217.19 48.518 1217.58 47.726C1217.97 46.934 1218.56 46.2887 1219.34 45.79C1220.11 45.2767 1221.09 45.02 1222.26 45.02C1223.35 45.02 1224.29 45.262 1225.1 45.746C1225.91 46.2153 1226.49 46.8607 1226.86 47.682L1224.55 48.408C1224.3 47.88 1223.95 47.528 1223.49 47.352C1223.05 47.1613 1222.64 47.066 1222.26 47.066C1221.65 47.066 1221.13 47.22 1220.7 47.528C1220.29 47.8213 1219.97 48.21 1219.75 48.694C1219.55 49.1633 1219.45 49.662 1219.45 50.19C1219.45 50.85 1219.59 51.4147 1219.86 51.884C1220.16 52.3387 1220.52 52.6907 1220.96 52.94C1221.4 53.1747 1221.85 53.292 1222.31 53.292C1222.76 53.292 1223.21 53.1747 1223.65 52.94C1224.1 52.6907 1224.44 52.346 1224.66 51.906L1226.97 52.61C1226.78 53.05 1226.47 53.4827 1226.05 53.908C1225.62 54.3187 1225.09 54.6633 1224.46 54.942C1223.85 55.206 1223.14 55.338 1222.35 55.338ZM1238.63 58C1238.63 57.1787 1238.72 56.438 1238.92 55.778C1239.12 55.1033 1239.47 54.4873 1239.97 53.93C1240.48 53.358 1241.22 52.808 1242.17 52.28C1242.85 51.8987 1243.47 51.5613 1244.04 51.268C1244.63 50.96 1245.09 50.6447 1245.43 50.322C1245.78 49.9993 1245.96 49.618 1245.96 49.178C1245.96 48.7087 1245.75 48.2907 1245.34 47.924C1244.94 47.5427 1244.37 47.352 1243.62 47.352C1242.83 47.352 1242.16 47.5427 1241.62 47.924C1241.08 48.2907 1240.65 48.6647 1240.32 49.046L1238.81 47.308C1239.01 47.088 1239.36 46.8167 1239.84 46.494C1240.32 46.1567 1240.92 45.8633 1241.62 45.614C1242.34 45.35 1243.15 45.218 1244.04 45.218C1245.45 45.218 1246.56 45.5627 1247.36 46.252C1248.17 46.9413 1248.57 47.8067 1248.57 48.848C1248.57 49.5667 1248.39 50.1827 1248.02 50.696C1247.66 51.1947 1247.22 51.6127 1246.7 51.95C1246.2 52.2873 1245.74 52.566 1245.32 52.786C1244.55 53.1673 1243.92 53.5047 1243.43 53.798C1242.94 54.0913 1242.55 54.392 1242.26 54.7C1241.97 55.008 1241.73 55.382 1241.56 55.822H1248.82V58H1238.63ZM1262.65 51.554C1262.65 52.8447 1262.4 53.996 1261.9 55.008C1261.42 56.0053 1260.75 56.79 1259.9 57.362C1259.05 57.934 1258.09 58.22 1257.02 58.22C1255.93 58.22 1254.96 57.934 1254.11 57.362C1253.28 56.79 1252.61 56.0053 1252.11 55.008C1251.63 53.996 1251.39 52.8447 1251.39 51.554C1251.39 50.2633 1251.63 49.1193 1252.11 48.122C1252.61 47.11 1253.28 46.318 1254.11 45.746C1254.96 45.1593 1255.93 44.866 1257.02 44.866C1258.09 44.866 1259.05 45.1593 1259.9 45.746C1260.75 46.318 1261.42 47.11 1261.9 48.122C1262.4 49.1193 1262.65 50.2633 1262.65 51.554ZM1260.19 51.554C1260.19 50.674 1260.05 49.904 1259.77 49.244C1259.5 48.5693 1259.13 48.0487 1258.65 47.682C1258.18 47.3007 1257.63 47.11 1257.02 47.11C1256.39 47.11 1255.83 47.3007 1255.35 47.682C1254.86 48.0487 1254.48 48.5693 1254.2 49.244C1253.94 49.904 1253.81 50.674 1253.81 51.554C1253.81 52.874 1254.1 53.9447 1254.69 54.766C1255.29 55.5727 1256.06 55.976 1257.02 55.976C1257.63 55.976 1258.18 55.7927 1258.65 55.426C1259.13 55.0593 1259.5 54.546 1259.77 53.886C1260.05 53.2113 1260.19 52.434 1260.19 51.554ZM1265.1 58C1265.1 57.1787 1265.19 56.438 1265.38 55.778C1265.59 55.1033 1265.94 54.4873 1266.44 53.93C1266.95 53.358 1267.69 52.808 1268.64 52.28C1269.31 51.8987 1269.94 51.5613 1270.51 51.268C1271.1 50.96 1271.56 50.6447 1271.9 50.322C1272.25 49.9993 1272.42 49.618 1272.42 49.178C1272.42 48.7087 1272.22 48.2907 1271.81 47.924C1271.41 47.5427 1270.84 47.352 1270.09 47.352C1269.3 47.352 1268.63 47.5427 1268.09 47.924C1267.55 48.2907 1267.11 48.6647 1266.79 49.046L1265.27 47.308C1265.48 47.088 1265.82 46.8167 1266.31 46.494C1266.79 46.1567 1267.39 45.8633 1268.09 45.614C1268.81 45.35 1269.61 45.218 1270.51 45.218C1271.92 45.218 1273.02 45.5627 1273.83 46.252C1274.64 46.9413 1275.04 47.8067 1275.04 48.848C1275.04 49.5667 1274.86 50.1827 1274.49 50.696C1274.12 51.1947 1273.68 51.6127 1273.17 51.95C1272.67 52.2873 1272.21 52.566 1271.79 52.786C1271.02 53.1673 1270.39 53.5047 1269.89 53.798C1269.41 54.0913 1269.02 54.392 1268.73 54.7C1268.43 55.008 1268.2 55.382 1268.02 55.822H1275.28V58H1265.1ZM1286.57 55.822V58H1278.16V55.822H1281.29V48.144C1281.12 48.364 1280.83 48.606 1280.41 48.87C1279.98 49.134 1279.52 49.354 1279.02 49.53C1278.54 49.706 1278.1 49.794 1277.72 49.794V47.528C1278.01 47.528 1278.35 47.44 1278.73 47.264C1279.11 47.088 1279.49 46.8827 1279.86 46.648C1280.24 46.3987 1280.56 46.164 1280.82 45.944C1281.09 45.7093 1281.24 45.5407 1281.29 45.438H1283.77V55.822H1286.57ZM1295.16 58V42.38H1305.57V44.558H1297.63V49.222H1304.27V51.268H1297.63V58H1295.16ZM1308.03 44.602V41.94H1310.45V44.602H1308.03ZM1308.03 58V46.494H1310.45V58H1308.03ZM1320.2 57.406C1319.9 57.5527 1319.47 57.7213 1318.93 57.912C1318.39 58.088 1317.81 58.176 1317.19 58.176C1316.43 58.176 1315.77 57.9707 1315.21 57.56C1314.67 57.1493 1314.4 56.482 1314.4 55.558V48.364H1312.88V46.494H1314.4V42.71H1316.82V46.494H1319.32V48.364H1316.82V54.788C1316.85 55.1987 1316.97 55.4993 1317.19 55.69C1317.43 55.866 1317.71 55.954 1318.05 55.954C1318.39 55.954 1318.71 55.8953 1319.02 55.778C1319.32 55.6607 1319.55 55.5653 1319.7 55.492L1320.2 57.406ZM1321.51 50.08C1321.51 49.1267 1321.68 48.188 1322.02 47.264C1322.35 46.34 1322.84 45.504 1323.49 44.756C1324.15 44.008 1324.94 43.414 1325.87 42.974C1326.8 42.5193 1327.88 42.292 1329.08 42.292C1330.49 42.292 1331.7 42.6073 1332.73 43.238C1333.76 43.8687 1334.52 44.69 1335.02 45.702L1333.08 47C1332.79 46.3693 1332.41 45.878 1331.96 45.526C1331.52 45.1593 1331.04 44.9027 1330.51 44.756C1329.99 44.5947 1329.49 44.514 1328.99 44.514C1328.17 44.514 1327.45 44.6827 1326.83 45.02C1326.22 45.3427 1325.7 45.7753 1325.27 46.318C1324.86 46.8607 1324.55 47.4693 1324.33 48.144C1324.12 48.8187 1324.02 49.4933 1324.02 50.168C1324.02 51.18 1324.23 52.126 1324.66 53.006C1325.1 53.8713 1325.69 54.5753 1326.44 55.118C1327.2 55.646 1328.07 55.91 1329.06 55.91C1329.55 55.91 1330.08 55.822 1330.62 55.646C1331.16 55.47 1331.66 55.1987 1332.11 54.832C1332.57 54.4507 1332.94 53.952 1333.21 53.336L1335.26 54.502C1334.94 55.2793 1334.43 55.9393 1333.74 56.482C1333.07 57.0247 1332.3 57.4353 1331.45 57.714C1330.62 57.9927 1329.79 58.132 1328.97 58.132C1327.87 58.132 1326.86 57.9047 1325.95 57.45C1325.04 56.9807 1324.26 56.3647 1323.6 55.602C1322.94 54.8247 1322.43 53.9593 1322.06 53.006C1321.69 52.038 1321.51 51.0627 1321.51 50.08ZM1347.99 58H1345.57V51.554C1345.57 50.5127 1345.38 49.7353 1345 49.222C1344.62 48.7087 1344.08 48.452 1343.39 48.452C1342.95 48.452 1342.5 48.5693 1342.05 48.804C1341.61 49.0387 1341.21 49.3613 1340.86 49.772C1340.51 50.168 1340.25 50.63 1340.09 51.158V58H1337.67V41.94H1340.09V48.804C1340.53 48.012 1341.13 47.396 1341.89 46.956C1342.66 46.516 1343.48 46.296 1344.36 46.296C1345.31 46.296 1346.05 46.516 1346.58 46.956C1347.11 47.3813 1347.48 47.9533 1347.68 48.672C1347.89 49.376 1347.99 50.146 1347.99 50.982V58ZM1356.45 58.22C1355.26 58.22 1354.22 57.9487 1353.33 57.406C1352.43 56.8633 1351.74 56.1447 1351.24 55.25C1350.74 54.3407 1350.49 53.3507 1350.49 52.28C1350.49 51.1947 1350.74 50.1973 1351.24 49.288C1351.74 48.3787 1352.43 47.6527 1353.33 47.11C1354.22 46.5673 1355.27 46.296 1356.47 46.296C1357.68 46.296 1358.72 46.5747 1359.6 47.132C1360.48 47.6747 1361.15 48.3933 1361.62 49.288C1362.11 50.1827 1362.35 51.1433 1362.35 52.17C1362.35 52.5367 1362.33 52.83 1362.28 53.05H1353.06C1353.11 53.7247 1353.29 54.3187 1353.61 54.832C1353.95 55.3307 1354.37 55.7267 1354.87 56.02C1355.38 56.2987 1355.94 56.438 1356.54 56.438C1357.19 56.438 1357.79 56.2767 1358.37 55.954C1358.94 55.6313 1359.33 55.206 1359.55 54.678L1361.62 55.272C1361.23 56.1373 1360.57 56.8487 1359.64 57.406C1358.73 57.9487 1357.67 58.22 1356.45 58.22ZM1353 51.444H1359.95C1359.89 50.784 1359.7 50.2047 1359.38 49.706C1359.06 49.1927 1358.64 48.7967 1358.12 48.518C1357.63 48.2247 1357.07 48.078 1356.45 48.078C1355.85 48.078 1355.29 48.2247 1354.78 48.518C1354.28 48.7967 1353.87 49.1927 1353.55 49.706C1353.23 50.2047 1353.04 50.784 1353 51.444ZM1369.98 58.22C1368.79 58.22 1367.75 57.9487 1366.85 57.406C1365.96 56.8487 1365.26 56.1153 1364.76 55.206C1364.26 54.2967 1364.01 53.3067 1364.01 52.236C1364.01 51.1653 1364.26 50.1827 1364.74 49.288C1365.24 48.3787 1365.93 47.6527 1366.81 47.11C1367.7 46.5673 1368.76 46.296 1369.98 46.296C1371.16 46.296 1372.18 46.56 1373.03 47.088C1373.9 47.6013 1374.54 48.2907 1374.97 49.156L1372.62 49.904C1372.35 49.42 1371.98 49.046 1371.49 48.782C1371.02 48.5033 1370.5 48.364 1369.93 48.364C1369.29 48.364 1368.7 48.5327 1368.17 48.87C1367.66 49.1927 1367.25 49.6473 1366.94 50.234C1366.65 50.8207 1366.5 51.488 1366.5 52.236C1366.5 52.984 1366.65 53.6513 1366.96 54.238C1367.28 54.8247 1367.7 55.294 1368.22 55.646C1368.74 55.9833 1369.32 56.152 1369.95 56.152C1370.54 56.152 1371.1 55.998 1371.63 55.69C1372.15 55.382 1372.51 55.008 1372.68 54.568L1375.06 55.272C1374.68 56.1373 1374.04 56.8487 1373.14 57.406C1372.25 57.9487 1371.19 58.22 1369.98 58.22ZM1385.5 58L1381.8 52.698L1379.91 54.502V58H1377.49V41.94H1379.91V52.06L1385.23 46.516H1387.83L1383.36 51.334L1388.07 58H1385.5Z" fill="black"/>
</svg>
