<svg width="257" height="117" viewBox="0 0 257 117" fill="none" xmlns="http://www.w3.org/2000/svg">
<path d="M0 32C0 14.3269 14.3269 0 32 0H225C242.673 0 257 14.3269 257 32V85C257 102.673 242.673 117 225 117H32C14.3269 117 0 102.673 0 85V32Z" fill="#C4C4C4"/>
<path d="M78.2366 69.3C76.4766 69.3 74.9566 68.92 73.6766 68.16C72.4166 67.4 71.4466 66.4 70.7666 65.16C70.1066 63.92 69.7766 62.57 69.7766 61.11C69.7766 59.67 70.1066 58.33 70.7666 57.09C71.4466 55.85 72.4166 54.85 73.6766 54.09C74.9366 53.33 76.4566 52.95 78.2366 52.95C80.0366 52.95 81.5566 53.34 82.7966 54.12C84.0566 54.88 84.9966 55.88 85.6166 57.12L80.9366 58.53C80.3166 57.53 79.4066 57.03 78.2066 57.03C77.2266 57.03 76.3966 57.4 75.7166 58.14C75.0366 58.88 74.6966 59.87 74.6966 61.11C74.6966 62.35 75.0366 63.35 75.7166 64.11C76.3966 64.87 77.2266 65.25 78.2066 65.25C78.8066 65.25 79.3566 65.11 79.8566 64.83C80.3566 64.53 80.7266 64.15 80.9666 63.69L85.6466 65.13C85.0666 66.35 84.1366 67.35 82.8566 68.13C81.5966 68.91 80.0566 69.3 78.2366 69.3ZM87.756 47.1H92.556V63.39C92.556 64.05 92.676 64.52 92.916 64.8C93.156 65.08 93.496 65.22 93.936 65.22C94.236 65.22 94.536 65.18 94.836 65.1C95.156 65 95.436 64.89 95.676 64.77L96.306 68.37C95.706 68.65 95.016 68.87 94.236 69.03C93.456 69.19 92.726 69.27 92.046 69.27C90.686 69.27 89.626 68.91 88.866 68.19C88.126 67.47 87.756 66.43 87.756 65.07V47.1ZM105.395 69.3C103.615 69.3 102.095 68.93 100.835 68.19C99.5748 67.45 98.6048 66.47 97.9248 65.25C97.2648 64.03 96.9348 62.71 96.9348 61.29C96.9348 59.77 97.2648 58.38 97.9248 57.12C98.5848 55.86 99.5448 54.85 100.805 54.09C102.065 53.33 103.595 52.95 105.395 52.95C107.175 52.95 108.695 53.33 109.955 54.09C111.215 54.85 112.165 55.85 112.805 57.09C113.465 58.33 113.795 59.66 113.795 61.08C113.795 61.66 113.755 62.17 113.675 62.61H102.035C102.115 63.67 102.495 64.48 103.175 65.04C103.875 65.58 104.665 65.85 105.545 65.85C106.245 65.85 106.915 65.68 107.555 65.34C108.195 65 108.635 64.54 108.875 63.96L112.955 65.1C112.335 66.34 111.365 67.35 110.045 68.13C108.745 68.91 107.195 69.3 105.395 69.3ZM101.915 59.67H108.755C108.655 58.67 108.285 57.88 107.645 57.3C107.025 56.7 106.255 56.4 105.335 56.4C104.415 56.4 103.635 56.7 102.995 57.3C102.375 57.9 102.015 58.69 101.915 59.67ZM114.98 64.29C114.98 63.25 115.27 62.34 115.85 61.56C116.43 60.78 117.23 60.17 118.25 59.73C119.27 59.27 120.44 59.04 121.76 59.04C122.4 59.04 123.03 59.1 123.65 59.22C124.27 59.32 124.81 59.47 125.27 59.67V58.98C125.27 57.2 124.22 56.31 122.12 56.31C121.24 56.31 120.41 56.46 119.63 56.76C118.87 57.06 118.06 57.49 117.2 58.05L115.76 54.99C117.84 53.63 120.12 52.95 122.6 52.95C124.96 52.95 126.79 53.52 128.09 54.66C129.41 55.78 130.07 57.41 130.07 59.55V63.66C130.07 64.14 130.14 64.48 130.28 64.68C130.44 64.88 130.71 64.99 131.09 65.01V69C130.67 69.08 130.29 69.14 129.95 69.18C129.61 69.22 129.31 69.24 129.05 69.24C128.15 69.24 127.46 69.06 126.98 68.7C126.52 68.34 126.23 67.85 126.11 67.23L126.02 66.54C125.32 67.44 124.48 68.13 123.5 68.61C122.52 69.07 121.51 69.3 120.47 69.3C119.43 69.3 118.49 69.08 117.65 68.64C116.83 68.2 116.18 67.61 115.7 66.87C115.22 66.11 114.98 65.25 114.98 64.29ZM124.52 64.89C125.02 64.49 125.27 64.08 125.27 63.66V62.25C124.85 62.09 124.39 61.97 123.89 61.89C123.41 61.79 122.97 61.74 122.57 61.74C121.67 61.74 120.93 61.94 120.35 62.34C119.79 62.74 119.51 63.25 119.51 63.87C119.51 64.41 119.72 64.88 120.14 65.28C120.58 65.66 121.16 65.85 121.88 65.85C122.36 65.85 122.84 65.76 123.32 65.58C123.8 65.4 124.2 65.17 124.52 64.89ZM143.538 57.36C142.378 57.38 141.328 57.57 140.388 57.93C139.448 58.29 138.768 58.83 138.348 59.55V69H133.548V53.25H137.958V56.43C138.498 55.37 139.198 54.54 140.058 53.94C140.918 53.34 141.818 53.03 142.758 53.01C143.158 53.01 143.418 53.02 143.538 53.04V57.36ZM150.928 64.29C150.928 63.25 151.218 62.34 151.798 61.56C152.378 60.78 153.178 60.17 154.198 59.73C155.218 59.27 156.388 59.04 157.708 59.04C158.348 59.04 158.978 59.1 159.598 59.22C160.218 59.32 160.758 59.47 161.218 59.67V58.98C161.218 57.2 160.168 56.31 158.068 56.31C157.188 56.31 156.358 56.46 155.578 56.76C154.818 57.06 154.008 57.49 153.148 58.05L151.708 54.99C153.788 53.63 156.068 52.95 158.548 52.95C160.908 52.95 162.738 53.52 164.038 54.66C165.358 55.78 166.018 57.41 166.018 59.55V63.66C166.018 64.14 166.088 64.48 166.228 64.68C166.388 64.88 166.658 64.99 167.038 65.01V69C166.618 69.08 166.238 69.14 165.898 69.18C165.558 69.22 165.258 69.24 164.998 69.24C164.098 69.24 163.408 69.06 162.928 68.7C162.468 68.34 162.178 67.85 162.058 67.23L161.968 66.54C161.268 67.44 160.428 68.13 159.448 68.61C158.468 69.07 157.458 69.3 156.418 69.3C155.378 69.3 154.438 69.08 153.598 68.64C152.778 68.2 152.128 67.61 151.648 66.87C151.168 66.11 150.928 65.25 150.928 64.29ZM160.468 64.89C160.968 64.49 161.218 64.08 161.218 63.66V62.25C160.798 62.09 160.338 61.97 159.838 61.89C159.358 61.79 158.918 61.74 158.518 61.74C157.618 61.74 156.878 61.94 156.298 62.34C155.738 62.74 155.458 63.25 155.458 63.87C155.458 64.41 155.668 64.88 156.088 65.28C156.528 65.66 157.108 65.85 157.828 65.85C158.308 65.85 158.788 65.76 159.268 65.58C159.748 65.4 160.148 65.17 160.468 64.89ZM169.436 47.1H174.236V63.39C174.236 64.05 174.356 64.52 174.596 64.8C174.836 65.08 175.176 65.22 175.616 65.22C175.916 65.22 176.216 65.18 176.516 65.1C176.836 65 177.116 64.89 177.356 64.77L177.986 68.37C177.386 68.65 176.696 68.87 175.916 69.03C175.136 69.19 174.406 69.27 173.726 69.27C172.366 69.27 171.306 68.91 170.546 68.19C169.806 67.47 169.436 66.43 169.436 65.07V47.1ZM179.485 47.1H184.285V63.39C184.285 64.05 184.405 64.52 184.645 64.8C184.885 65.08 185.225 65.22 185.665 65.22C185.965 65.22 186.265 65.18 186.565 65.1C186.885 65 187.165 64.89 187.405 64.77L188.035 68.37C187.435 68.65 186.745 68.87 185.965 69.03C185.185 69.19 184.455 69.27 183.775 69.27C182.415 69.27 181.355 68.91 180.595 68.19C179.855 67.47 179.485 66.43 179.485 65.07V47.1Z" fill="black"/>
</svg>
