<svg width="452" height="239" viewBox="0 0 452 239" fill="none" xmlns="http://www.w3.org/2000/svg">
<path d="M0 30C0 13.4315 13.4315 0 30 0H422C438.569 0 452 13.4315 452 30V209C452 225.569 438.569 239 422 239H30C13.4315 239 0 225.569 0 209V30Z" fill="#C4C4C4"/>
<path d="M248.37 65.8C248.37 63.85 248.715 61.93 249.405 60.04C250.095 58.15 251.1 56.44 252.42 54.91C253.77 53.38 255.39 52.165 257.28 51.265C259.2 50.335 261.39 49.87 263.85 49.87C266.73 49.87 269.22 50.515 271.32 51.805C273.42 53.095 274.98 54.775 276 56.845L272.04 59.5C271.44 58.21 270.675 57.205 269.745 56.485C268.845 55.735 267.855 55.21 266.775 54.91C265.725 54.58 264.69 54.415 263.67 54.415C261.99 54.415 260.52 54.76 259.26 55.45C258 56.11 256.935 56.995 256.065 58.105C255.225 59.215 254.58 60.46 254.13 61.84C253.71 63.22 253.5 64.6 253.5 65.98C253.5 68.05 253.935 69.985 254.805 71.785C255.705 73.555 256.92 74.995 258.45 76.105C260.01 77.185 261.795 77.725 263.805 77.725C264.825 77.725 265.89 77.545 267 77.185C268.11 76.825 269.13 76.27 270.06 75.52C270.99 74.74 271.74 73.72 272.31 72.46L276.495 74.845C275.835 76.435 274.8 77.785 273.39 78.895C272.01 80.005 270.45 80.845 268.71 81.415C267 81.985 265.305 82.27 263.625 82.27C261.375 82.27 259.32 81.805 257.46 80.875C255.6 79.915 253.995 78.655 252.645 77.095C251.295 75.505 250.245 73.735 249.495 71.785C248.745 69.805 248.37 67.81 248.37 65.8ZM282.057 82V50.05H295.962C297.402 50.05 298.722 50.35 299.922 50.95C301.122 51.55 302.157 52.345 303.027 53.335C303.927 54.325 304.617 55.435 305.097 56.665C305.607 57.895 305.862 59.155 305.862 60.445C305.862 61.885 305.592 63.25 305.052 64.54C304.542 65.8 303.822 66.895 302.892 67.825C301.962 68.755 300.867 69.43 299.607 69.85L307.122 82H301.452L294.522 70.885H287.097V82H282.057ZM287.097 66.43H295.917C296.847 66.43 297.672 66.16 298.392 65.62C299.112 65.05 299.682 64.315 300.102 63.415C300.522 62.515 300.732 61.525 300.732 60.445C300.732 59.335 300.492 58.345 300.012 57.475C299.532 56.575 298.902 55.855 298.122 55.315C297.342 54.775 296.517 54.505 295.647 54.505H287.097V66.43ZM334.623 77.545V82H312.708V50.05H334.218V54.505H317.748V63.595H332.013V67.78H317.748V77.545H334.623ZM349.947 50.05H354.717L367.137 82H361.827L358.452 73.315H346.122L342.792 82H337.437L349.947 50.05ZM357.462 69.58L352.332 55.585L347.022 69.58H357.462ZM392.401 54.505H381.781V82H376.696V54.505H366.031V50.05H392.401V54.505ZM419.501 77.545V82H397.586V50.05H419.096V54.505H402.626V63.595H416.891V67.78H402.626V77.545H419.501ZM320.626 112.41V135H315.586V103.05H319.726L337.816 126.135V103.095H342.901V135H338.491L320.626 112.41ZM372.898 130.545V135H350.983V103.05H372.493V107.505H356.023V116.595H370.288V120.78H356.023V130.545H372.898ZM390.337 103.185H395.062L399.022 114.03L403.027 103.185H407.752L402.262 117.405L407.032 129.15L416.977 103.05H422.512L409.417 135H405.052L399.067 120.69L393.037 135H388.627L375.577 103.05H381.067L391.057 129.15L395.827 117.405L390.337 103.185ZM357.75 188V156.05H379.035V160.505H362.79V170.045H376.38V174.23H362.79V188H357.75ZM384.71 188V156.05H389.75V188H384.71ZM421.316 160.505H410.696V188H405.611V160.505H394.946V156.05H421.316V160.505Z" fill="black"/>
</svg>
