<svg width="346" height="144" viewBox="0 0 346 144" fill="none" xmlns="http://www.w3.org/2000/svg">
<path d="M10.6478 22.3C9.28777 22.3 7.96777 22.08 6.68777 21.64C5.42777 21.18 4.35777 20.53 3.47777 19.69L5.12777 16.66C7.06777 18.08 8.85777 18.79 10.4978 18.79C11.1178 18.79 11.5978 18.69 11.9378 18.49C12.2778 18.29 12.4478 17.98 12.4478 17.56C12.4478 17.12 12.2178 16.81 11.7578 16.63C11.2978 16.43 10.6178 16.2 9.71777 15.94C8.51777 15.54 7.51777 15.15 6.71777 14.77C5.91777 14.39 5.31777 13.93 4.91777 13.39C4.51777 12.85 4.31777 12.13 4.31777 11.23C4.31777 9.65 4.90777 8.38 6.08777 7.42C7.26777 6.44 8.86777 5.95 10.8878 5.95C11.9678 5.95 13.0178 6.12 14.0378 6.46C15.0778 6.8 16.0478 7.37 16.9478 8.17L15.0878 11.17C14.1878 10.55 13.3878 10.1 12.6878 9.82C11.9878 9.54 11.3078 9.4 10.6478 9.4C10.1278 9.4 9.68777 9.5 9.32777 9.7C8.96777 9.88 8.78777 10.2 8.78777 10.66C8.78777 11.1 8.98777 11.43 9.38777 11.65C9.78777 11.85 10.4078 12.07 11.2478 12.31C12.5278 12.69 13.5978 13.08 14.4578 13.48C15.3378 13.86 15.9878 14.34 16.4078 14.92C16.8478 15.48 17.0678 16.23 17.0678 17.17C17.0678 18.77 16.4878 20.03 15.3278 20.95C14.1678 21.85 12.6078 22.3 10.6478 22.3ZM31.1127 21.16C30.4527 21.44 29.6927 21.7 28.8327 21.94C27.9927 22.18 27.1427 22.3 26.2827 22.3C25.4827 22.3 24.7527 22.17 24.0927 21.91C23.4327 21.63 22.9027 21.18 22.5027 20.56C22.1027 19.94 21.9027 19.12 21.9027 18.1V9.88H19.8927V6.25H21.9027V1.24H26.7027V6.25H29.9127V9.88H26.7027V16.45C26.7027 16.97 26.8327 17.35 27.0927 17.59C27.3527 17.81 27.6827 17.92 28.0827 17.92C28.4427 17.92 28.8127 17.86 29.1927 17.74C29.5727 17.62 29.9027 17.49 30.1827 17.35L31.1127 21.16ZM41.8072 22.3C40.0072 22.3 38.4772 21.92 37.2172 21.16C35.9772 20.4 35.0272 19.4 34.3672 18.16C33.7072 16.92 33.3772 15.58 33.3772 14.14C33.3772 12.68 33.7072 11.33 34.3672 10.09C35.0272 8.85 35.9872 7.85 37.2472 7.09C38.5072 6.33 40.0272 5.95 41.8072 5.95C43.5872 5.95 45.1072 6.33 46.3672 7.09C47.6272 7.85 48.5872 8.85 49.2472 10.09C49.9072 11.33 50.2372 12.68 50.2372 14.14C50.2372 15.58 49.9072 16.92 49.2472 18.16C48.5872 19.4 47.6272 20.4 46.3672 21.16C45.1072 21.92 43.5872 22.3 41.8072 22.3ZM38.2972 14.14C38.2972 15.36 38.6272 16.35 39.2872 17.11C39.9672 17.87 40.8072 18.25 41.8072 18.25C42.7872 18.25 43.6072 17.87 44.2672 17.11C44.9472 16.35 45.2872 15.36 45.2872 14.14C45.2872 12.92 44.9472 11.93 44.2672 11.17C43.6072 10.41 42.7872 10.03 41.8072 10.03C40.8072 10.03 39.9672 10.41 39.2872 11.17C38.6272 11.93 38.2972 12.92 38.2972 14.14ZM64.1078 10.36C62.9478 10.38 61.8978 10.57 60.9578 10.93C60.0178 11.29 59.3378 11.83 58.9178 12.55V22H54.1178V6.25H58.5278V9.43C59.0678 8.37 59.7678 7.54 60.6278 6.94C61.4878 6.34 62.3878 6.03 63.3278 6.01C63.7278 6.01 63.9878 6.02 64.1078 6.04V10.36ZM75.0423 22.3C73.2623 22.3 71.7423 21.93 70.4823 21.19C69.2223 20.45 68.2523 19.47 67.5723 18.25C66.9123 17.03 66.5823 15.71 66.5823 14.29C66.5823 12.77 66.9123 11.38 67.5723 10.12C68.2323 8.86 69.1923 7.85 70.4523 7.09C71.7123 6.33 73.2423 5.95 75.0423 5.95C76.8223 5.95 78.3423 6.33 79.6023 7.09C80.8623 7.85 81.8123 8.85 82.4523 10.09C83.1123 11.33 83.4423 12.66 83.4423 14.08C83.4423 14.66 83.4023 15.17 83.3223 15.61H71.6823C71.7623 16.67 72.1423 17.48 72.8223 18.04C73.5223 18.58 74.3123 18.85 75.1923 18.85C75.8923 18.85 76.5623 18.68 77.2023 18.34C77.8423 18 78.2823 17.54 78.5223 16.96L82.6023 18.1C81.9823 19.34 81.0123 20.35 79.6923 21.13C78.3923 21.91 76.8423 22.3 75.0423 22.3ZM71.5623 12.67H78.4023C78.3023 11.67 77.9323 10.88 77.2923 10.3C76.6723 9.7 75.9023 9.4 74.9823 9.4C74.0623 9.4 73.2823 9.7 72.6423 10.3C72.0223 10.9 71.6623 11.69 71.5623 12.67ZM86.9678 26.32V22H97.7678V26.32H86.9678ZM117.567 22H112.767V13.15C112.767 12.11 112.567 11.36 112.167 10.9C111.787 10.42 111.277 10.18 110.637 10.18C109.977 10.18 109.307 10.44 108.627 10.96C107.947 11.48 107.467 12.15 107.187 12.97V22H102.387V6.25H106.707V8.89C107.287 7.97 108.107 7.25 109.167 6.73C110.227 6.21 111.447 5.95 112.827 5.95C113.847 5.95 114.667 6.14 115.287 6.52C115.927 6.88 116.407 7.36 116.727 7.96C117.067 8.54 117.287 9.18 117.387 9.88C117.507 10.58 117.567 11.26 117.567 11.92V22ZM121.266 17.29C121.266 16.25 121.556 15.34 122.136 14.56C122.716 13.78 123.516 13.17 124.536 12.73C125.556 12.27 126.726 12.04 128.046 12.04C128.686 12.04 129.316 12.1 129.936 12.22C130.556 12.32 131.096 12.47 131.556 12.67V11.98C131.556 10.2 130.506 9.31 128.406 9.31C127.526 9.31 126.696 9.46 125.916 9.76C125.156 10.06 124.346 10.49 123.486 11.05L122.046 7.99C124.126 6.63 126.406 5.95 128.886 5.95C131.246 5.95 133.076 6.52 134.376 7.66C135.696 8.78 136.356 10.41 136.356 12.55V16.66C136.356 17.14 136.426 17.48 136.566 17.68C136.726 17.88 136.996 17.99 137.376 18.01V22C136.956 22.08 136.576 22.14 136.236 22.18C135.896 22.22 135.596 22.24 135.336 22.24C134.436 22.24 133.746 22.06 133.266 21.7C132.806 21.34 132.516 20.85 132.396 20.23L132.306 19.54C131.606 20.44 130.766 21.13 129.786 21.61C128.806 22.07 127.796 22.3 126.756 22.3C125.716 22.3 124.776 22.08 123.936 21.64C123.116 21.2 122.466 20.61 121.986 19.87C121.506 19.11 121.266 18.25 121.266 17.29ZM130.806 17.89C131.306 17.49 131.556 17.08 131.556 16.66V15.25C131.136 15.09 130.676 14.97 130.176 14.89C129.696 14.79 129.256 14.74 128.856 14.74C127.956 14.74 127.216 14.94 126.636 15.34C126.076 15.74 125.796 16.25 125.796 16.87C125.796 17.41 126.006 17.88 126.426 18.28C126.866 18.66 127.446 18.85 128.166 18.85C128.646 18.85 129.126 18.76 129.606 18.58C130.086 18.4 130.486 18.17 130.806 17.89ZM166.235 22H161.435V13.15C161.435 12.13 161.245 11.38 160.865 10.9C160.485 10.42 159.995 10.18 159.395 10.18C158.755 10.18 158.125 10.44 157.505 10.96C156.885 11.48 156.445 12.15 156.185 12.97V22H151.385V13.15C151.385 12.11 151.195 11.36 150.815 10.9C150.435 10.42 149.945 10.18 149.345 10.18C148.705 10.18 148.075 10.44 147.455 10.96C146.855 11.48 146.415 12.15 146.135 12.97V22H141.335V6.25H145.655V8.89C146.235 7.95 147.025 7.23 148.025 6.73C149.025 6.21 150.175 5.95 151.475 5.95C152.775 5.95 153.775 6.26 154.475 6.88C155.175 7.48 155.625 8.19 155.825 9.01C156.425 8.05 157.215 7.3 158.195 6.76C159.195 6.22 160.315 5.95 161.555 5.95C162.555 5.95 163.355 6.14 163.955 6.52C164.575 6.88 165.045 7.36 165.365 7.96C165.705 8.56 165.935 9.21 166.055 9.91C166.175 10.59 166.235 11.26 166.235 11.92V22ZM178.402 22.3C176.622 22.3 175.102 21.93 173.842 21.19C172.582 20.45 171.612 19.47 170.932 18.25C170.272 17.03 169.942 15.71 169.942 14.29C169.942 12.77 170.272 11.38 170.932 10.12C171.592 8.86 172.552 7.85 173.812 7.09C175.072 6.33 176.602 5.95 178.402 5.95C180.182 5.95 181.702 6.33 182.962 7.09C184.222 7.85 185.172 8.85 185.812 10.09C186.472 11.33 186.802 12.66 186.802 14.08C186.802 14.66 186.762 15.17 186.682 15.61H175.042C175.122 16.67 175.502 17.48 176.182 18.04C176.882 18.58 177.672 18.85 178.552 18.85C179.252 18.85 179.922 18.68 180.562 18.34C181.202 18 181.642 17.54 181.882 16.96L185.962 18.1C185.342 19.34 184.372 20.35 183.052 21.13C181.752 21.91 180.202 22.3 178.402 22.3ZM174.922 12.67H181.762C181.662 11.67 181.292 10.88 180.652 10.3C180.032 9.7 179.262 9.4 178.342 9.4C177.422 9.4 176.642 9.7 176.002 10.3C175.382 10.9 175.022 11.69 174.922 12.67ZM190.987 11.32V6.43H194.887V11.32H190.987ZM190.987 22V17.11H194.887V22H190.987ZM226.952 0.699999V22H223.562V12.61H212.822V22H209.462V0.699999H212.822V9.61H223.562V0.699999H226.952ZM239.623 22.3C237.983 22.3 236.553 21.93 235.333 21.19C234.133 20.43 233.203 19.44 232.543 18.22C231.883 16.98 231.553 15.63 231.553 14.17C231.553 12.71 231.883 11.37 232.543 10.15C233.223 8.91 234.163 7.92 235.363 7.18C236.583 6.42 238.003 6.04 239.623 6.04C241.243 6.04 242.653 6.42 243.853 7.18C245.073 7.92 246.013 8.91 246.673 10.15C247.353 11.37 247.693 12.71 247.693 14.17C247.693 15.63 247.363 16.98 246.703 18.22C246.043 19.44 245.103 20.43 243.883 21.19C242.683 21.93 241.263 22.3 239.623 22.3ZM234.943 14.2C234.943 15.2 235.153 16.1 235.573 16.9C235.993 17.7 236.553 18.33 237.253 18.79C237.953 19.25 238.743 19.48 239.623 19.48C240.483 19.48 241.263 19.25 241.963 18.79C242.683 18.31 243.253 17.67 243.673 16.87C244.093 16.07 244.303 15.17 244.303 14.17C244.303 13.17 244.093 12.27 243.673 11.47C243.253 10.67 242.683 10.04 241.963 9.58C241.263 9.1 240.483 8.86 239.623 8.86C238.763 8.86 237.973 9.1 237.253 9.58C236.553 10.04 235.993 10.68 235.573 11.5C235.153 12.3 234.943 13.2 234.943 14.2ZM252.15 0.0999994H255.45V17.47C255.45 18.27 255.57 18.78 255.81 19C256.05 19.22 256.35 19.33 256.71 19.33C257.11 19.33 257.49 19.29 257.85 19.21C258.21 19.13 258.51 19.03 258.75 18.91L259.23 21.52C258.75 21.72 258.18 21.89 257.52 22.03C256.86 22.17 256.27 22.24 255.75 22.24C254.63 22.24 253.75 21.93 253.11 21.31C252.47 20.67 252.15 19.79 252.15 18.67V0.0999994ZM262.673 0.0999994H265.973V17.47C265.973 18.27 266.093 18.78 266.333 19C266.573 19.22 266.873 19.33 267.233 19.33C267.633 19.33 268.013 19.29 268.373 19.21C268.733 19.13 269.033 19.03 269.273 18.91L269.753 21.52C269.273 21.72 268.703 21.89 268.043 22.03C267.383 22.17 266.793 22.24 266.273 22.24C265.153 22.24 264.273 21.93 263.633 21.31C262.993 20.67 262.673 19.79 262.673 18.67V0.0999994ZM273.167 3.73V0.0999994H276.467V3.73H273.167ZM273.167 22V6.31H276.467V22H273.167ZM287.512 22.3C286.192 22.3 284.942 22.08 283.762 21.64C282.582 21.2 281.572 20.56 280.732 19.72L281.962 17.5C282.862 18.3 283.762 18.88 284.662 19.24C285.562 19.6 286.472 19.78 287.392 19.78C288.312 19.78 289.062 19.61 289.642 19.27C290.222 18.91 290.512 18.39 290.512 17.71C290.512 17.23 290.362 16.86 290.062 16.6C289.762 16.34 289.322 16.13 288.742 15.97C288.182 15.81 287.502 15.61 286.702 15.37C285.582 15.03 284.642 14.68 283.882 14.32C283.122 13.94 282.552 13.48 282.172 12.94C281.792 12.4 281.602 11.71 281.602 10.87C281.602 9.35 282.172 8.17 283.312 7.33C284.452 6.47 285.942 6.04 287.782 6.04C288.922 6.04 289.972 6.22 290.932 6.58C291.912 6.92 292.772 7.46 293.512 8.2L292.102 10.39C290.742 9.15 289.242 8.53 287.602 8.53C286.882 8.53 286.212 8.67 285.592 8.95C284.992 9.23 284.692 9.75 284.692 10.51C284.692 11.15 284.962 11.61 285.502 11.89C286.042 12.17 286.842 12.47 287.902 12.79C289.102 13.15 290.132 13.51 290.992 13.87C291.872 14.21 292.542 14.66 293.002 15.22C293.482 15.76 293.722 16.51 293.722 17.47C293.722 18.99 293.152 20.18 292.012 21.04C290.872 21.88 289.372 22.3 287.512 22.3ZM306.869 21.19C306.449 21.39 305.869 21.62 305.129 21.88C304.389 22.12 303.599 22.24 302.759 22.24C301.719 22.24 300.819 21.96 300.059 21.4C299.319 20.84 298.949 19.93 298.949 18.67V8.86H296.879V6.31H298.949V1.15H302.249V6.31H305.669V8.86H302.249V17.62C302.289 18.18 302.459 18.59 302.759 18.85C303.079 19.09 303.469 19.21 303.929 19.21C304.389 19.21 304.829 19.13 305.249 18.97C305.669 18.81 305.979 18.68 306.179 18.58L306.869 21.19ZM317.56 22.3C315.94 22.3 314.52 21.93 313.3 21.19C312.08 20.45 311.13 19.47 310.45 18.25C309.77 17.01 309.43 15.66 309.43 14.2C309.43 12.72 309.77 11.36 310.45 10.12C311.13 8.88 312.08 7.89 313.3 7.15C314.52 6.41 315.95 6.04 317.59 6.04C319.23 6.04 320.65 6.42 321.85 7.18C323.05 7.92 323.97 8.9 324.61 10.12C325.27 11.34 325.6 12.65 325.6 14.05C325.6 14.55 325.57 14.95 325.51 15.25H312.94C313 16.17 313.25 16.98 313.69 17.68C314.15 18.36 314.72 18.9 315.4 19.3C316.1 19.68 316.86 19.87 317.68 19.87C318.56 19.87 319.39 19.65 320.17 19.21C320.95 18.77 321.49 18.19 321.79 17.47L324.61 18.28C324.07 19.46 323.17 20.43 321.91 21.19C320.67 21.93 319.22 22.3 317.56 22.3ZM312.85 13.06H322.33C322.25 12.16 321.99 11.37 321.55 10.69C321.11 9.99 320.54 9.45 319.84 9.07C319.16 8.67 318.4 8.47 317.56 8.47C316.74 8.47 315.98 8.67 315.28 9.07C314.6 9.45 314.04 9.99 313.6 10.69C313.16 11.37 312.91 12.16 312.85 13.06ZM338.612 9.16C337.332 9.2 336.192 9.5 335.192 10.06C334.212 10.6 333.512 11.38 333.092 12.4V22H329.792V6.31H332.852V9.82C333.392 8.74 334.102 7.88 334.982 7.24C335.862 6.58 336.792 6.22 337.772 6.16C337.952 6.16 338.112 6.16 338.252 6.16C338.392 6.16 338.512 6.17 338.612 6.19V9.16Z" fill="black"/>
<path d="M1.65 46.45V42.1H6.45V46.45H1.65ZM1.65 64V48.25H6.45V64H1.65ZM21.4359 63.16C20.7759 63.44 20.0159 63.7 19.1559 63.94C18.3159 64.18 17.4659 64.3 16.6059 64.3C15.8059 64.3 15.0759 64.17 14.4159 63.91C13.7559 63.63 13.2259 63.18 12.8259 62.56C12.4259 61.94 12.2259 61.12 12.2259 60.1V51.88H10.2159V48.25H12.2259V43.24H17.0259V48.25H20.2359V51.88H17.0259V58.45C17.0259 58.97 17.1559 59.35 17.4159 59.59C17.6759 59.81 18.0059 59.92 18.4059 59.92C18.7659 59.92 19.1359 59.86 19.5159 59.74C19.8959 59.62 20.2259 59.49 20.5059 59.35L21.4359 63.16ZM32.1605 64.3C30.3805 64.3 28.8605 63.93 27.6005 63.19C26.3405 62.45 25.3705 61.47 24.6905 60.25C24.0305 59.03 23.7005 57.71 23.7005 56.29C23.7005 54.77 24.0305 53.38 24.6905 52.12C25.3505 50.86 26.3105 49.85 27.5705 49.09C28.8305 48.33 30.3605 47.95 32.1605 47.95C33.9405 47.95 35.4605 48.33 36.7205 49.09C37.9805 49.85 38.9305 50.85 39.5705 52.09C40.2305 53.33 40.5605 54.66 40.5605 56.08C40.5605 56.66 40.5205 57.17 40.4405 57.61H28.8005C28.8805 58.67 29.2605 59.48 29.9405 60.04C30.6405 60.58 31.4305 60.85 32.3105 60.85C33.0105 60.85 33.6805 60.68 34.3205 60.34C34.9605 60 35.4005 59.54 35.6405 58.96L39.7205 60.1C39.1005 61.34 38.1305 62.35 36.8105 63.13C35.5105 63.91 33.9605 64.3 32.1605 64.3ZM28.6805 54.67H35.5205C35.4205 53.67 35.0505 52.88 34.4105 52.3C33.7905 51.7 33.0205 51.4 32.1005 51.4C31.1805 51.4 30.4005 51.7 29.7605 52.3C29.1405 52.9 28.7805 53.69 28.6805 54.67ZM69.1359 64H64.3359V55.15C64.3359 54.13 64.1459 53.38 63.7659 52.9C63.3859 52.42 62.8959 52.18 62.2959 52.18C61.6559 52.18 61.0259 52.44 60.4059 52.96C59.7859 53.48 59.3459 54.15 59.0859 54.97V64H54.2859V55.15C54.2859 54.11 54.0959 53.36 53.7159 52.9C53.3359 52.42 52.8459 52.18 52.2459 52.18C51.6059 52.18 50.9759 52.44 50.3559 52.96C49.7559 53.48 49.3159 54.15 49.0359 54.97V64H44.2359V48.25H48.5559V50.89C49.1359 49.95 49.9259 49.23 50.9259 48.73C51.9259 48.21 53.0759 47.95 54.3759 47.95C55.6759 47.95 56.6759 48.26 57.3759 48.88C58.0759 49.48 58.5259 50.19 58.7259 51.01C59.3259 50.05 60.1159 49.3 61.0959 48.76C62.0959 48.22 63.2159 47.95 64.4559 47.95C65.4559 47.95 66.2559 48.14 66.8559 48.52C67.4759 48.88 67.9459 49.36 68.2659 49.96C68.6059 50.56 68.8359 51.21 68.9559 51.91C69.0759 52.59 69.1359 53.26 69.1359 53.92V64ZM73.623 68.32V64H84.423V68.32H73.623ZM104.223 64H99.4226V55.15C99.4226 54.11 99.2226 53.36 98.8226 52.9C98.4426 52.42 97.9326 52.18 97.2926 52.18C96.6326 52.18 95.9626 52.44 95.2826 52.96C94.6026 53.48 94.1226 54.15 93.8426 54.97V64H89.0426V48.25H93.3626V50.89C93.9426 49.97 94.7626 49.25 95.8226 48.73C96.8826 48.21 98.1026 47.95 99.4826 47.95C100.503 47.95 101.323 48.14 101.943 48.52C102.583 48.88 103.063 49.36 103.383 49.96C103.723 50.54 103.943 51.18 104.043 51.88C104.163 52.58 104.223 53.26 104.223 53.92V64ZM107.922 59.29C107.922 58.25 108.212 57.34 108.792 56.56C109.372 55.78 110.172 55.17 111.192 54.73C112.212 54.27 113.382 54.04 114.702 54.04C115.342 54.04 115.972 54.1 116.592 54.22C117.212 54.32 117.752 54.47 118.212 54.67V53.98C118.212 52.2 117.162 51.31 115.062 51.31C114.182 51.31 113.352 51.46 112.572 51.76C111.812 52.06 111.002 52.49 110.142 53.05L108.702 49.99C110.782 48.63 113.062 47.95 115.542 47.95C117.902 47.95 119.732 48.52 121.032 49.66C122.352 50.78 123.012 52.41 123.012 54.55V58.66C123.012 59.14 123.082 59.48 123.222 59.68C123.382 59.88 123.652 59.99 124.032 60.01V64C123.612 64.08 123.232 64.14 122.892 64.18C122.552 64.22 122.252 64.24 121.992 64.24C121.092 64.24 120.402 64.06 119.922 63.7C119.462 63.34 119.172 62.85 119.052 62.23L118.962 61.54C118.262 62.44 117.422 63.13 116.442 63.61C115.462 64.07 114.452 64.3 113.412 64.3C112.372 64.3 111.432 64.08 110.592 63.64C109.772 63.2 109.122 62.61 108.642 61.87C108.162 61.11 107.922 60.25 107.922 59.29ZM117.462 59.89C117.962 59.49 118.212 59.08 118.212 58.66V57.25C117.792 57.09 117.332 56.97 116.832 56.89C116.352 56.79 115.912 56.74 115.512 56.74C114.612 56.74 113.872 56.94 113.292 57.34C112.732 57.74 112.452 58.25 112.452 58.87C112.452 59.41 112.662 59.88 113.082 60.28C113.522 60.66 114.102 60.85 114.822 60.85C115.302 60.85 115.782 60.76 116.262 60.58C116.742 60.4 117.142 60.17 117.462 59.89ZM152.89 64H148.09V55.15C148.09 54.13 147.9 53.38 147.52 52.9C147.14 52.42 146.65 52.18 146.05 52.18C145.41 52.18 144.78 52.44 144.16 52.96C143.54 53.48 143.1 54.15 142.84 54.97V64H138.04V55.15C138.04 54.11 137.85 53.36 137.47 52.9C137.09 52.42 136.6 52.18 136 52.18C135.36 52.18 134.73 52.44 134.11 52.96C133.51 53.48 133.07 54.15 132.79 54.97V64H127.99V48.25H132.31V50.89C132.89 49.95 133.68 49.23 134.68 48.73C135.68 48.21 136.83 47.95 138.13 47.95C139.43 47.95 140.43 48.26 141.13 48.88C141.83 49.48 142.28 50.19 142.48 51.01C143.08 50.05 143.87 49.3 144.85 48.76C145.85 48.22 146.97 47.95 148.21 47.95C149.21 47.95 150.01 48.14 150.61 48.52C151.23 48.88 151.7 49.36 152.02 49.96C152.36 50.56 152.59 51.21 152.71 51.91C152.83 52.59 152.89 53.26 152.89 53.92V64ZM165.057 64.3C163.277 64.3 161.757 63.93 160.497 63.19C159.237 62.45 158.267 61.47 157.587 60.25C156.927 59.03 156.597 57.71 156.597 56.29C156.597 54.77 156.927 53.38 157.587 52.12C158.247 50.86 159.207 49.85 160.467 49.09C161.727 48.33 163.257 47.95 165.057 47.95C166.837 47.95 168.357 48.33 169.617 49.09C170.877 49.85 171.827 50.85 172.467 52.09C173.127 53.33 173.457 54.66 173.457 56.08C173.457 56.66 173.417 57.17 173.337 57.61H161.697C161.777 58.67 162.157 59.48 162.837 60.04C163.537 60.58 164.327 60.85 165.207 60.85C165.907 60.85 166.577 60.68 167.217 60.34C167.857 60 168.297 59.54 168.537 58.96L172.617 60.1C171.997 61.34 171.027 62.35 169.707 63.13C168.407 63.91 166.857 64.3 165.057 64.3ZM161.577 54.67H168.417C168.317 53.67 167.947 52.88 167.307 52.3C166.687 51.7 165.917 51.4 164.997 51.4C164.077 51.4 163.297 51.7 162.657 52.3C162.037 52.9 161.677 53.69 161.577 54.67ZM177.642 53.32V48.43H181.542V53.32H177.642ZM177.642 64V59.11H181.542V64H177.642ZM204.967 64.15C203.447 64.15 202.057 63.85 200.797 63.25C199.557 62.65 198.487 61.84 197.587 60.82C196.687 59.78 195.987 58.62 195.487 57.34C195.007 56.04 194.767 54.71 194.767 53.35C194.767 51.93 195.027 50.58 195.547 49.3C196.067 48 196.787 46.85 197.707 45.85C198.627 44.83 199.707 44.03 200.947 43.45C202.207 42.85 203.567 42.55 205.027 42.55C206.547 42.55 207.927 42.86 209.167 43.48C210.427 44.1 211.497 44.93 212.377 45.97C213.277 47.01 213.967 48.17 214.447 49.45C214.947 50.73 215.197 52.04 215.197 53.38C215.197 54.8 214.937 56.16 214.417 57.46C213.917 58.74 213.207 59.89 212.287 60.91C211.367 61.91 210.277 62.7 209.017 63.28C207.777 63.86 206.427 64.15 204.967 64.15ZM198.187 53.35C198.187 54.69 198.467 55.96 199.027 57.16C199.587 58.34 200.367 59.3 201.367 60.04C202.387 60.76 203.597 61.12 204.997 61.12C206.057 61.12 207.007 60.9 207.847 60.46C208.687 60.02 209.397 59.43 209.977 58.69C210.557 57.93 210.997 57.09 211.297 56.17C211.597 55.25 211.747 54.31 211.747 53.35C211.747 52.01 211.467 50.75 210.907 49.57C210.367 48.39 209.587 47.44 208.567 46.72C207.547 45.98 206.357 45.61 204.997 45.61C203.917 45.61 202.957 45.83 202.117 46.27C201.277 46.71 200.567 47.3 199.987 48.04C199.407 48.78 198.957 49.61 198.637 50.53C198.337 51.45 198.187 52.39 198.187 53.35ZM224.135 64L218.165 48.31H221.585L226.055 60.94L230.525 48.31H233.705L227.735 64H224.135ZM244.156 64.3C242.536 64.3 241.116 63.93 239.896 63.19C238.676 62.45 237.726 61.47 237.046 60.25C236.366 59.01 236.026 57.66 236.026 56.2C236.026 54.72 236.366 53.36 237.046 52.12C237.726 50.88 238.676 49.89 239.896 49.15C241.116 48.41 242.546 48.04 244.186 48.04C245.826 48.04 247.246 48.42 248.446 49.18C249.646 49.92 250.566 50.9 251.206 52.12C251.866 53.34 252.196 54.65 252.196 56.05C252.196 56.55 252.166 56.95 252.106 57.25H239.536C239.596 58.17 239.846 58.98 240.286 59.68C240.746 60.36 241.316 60.9 241.996 61.3C242.696 61.68 243.456 61.87 244.276 61.87C245.156 61.87 245.986 61.65 246.766 61.21C247.546 60.77 248.086 60.19 248.386 59.47L251.206 60.28C250.666 61.46 249.766 62.43 248.506 63.19C247.266 63.93 245.816 64.3 244.156 64.3ZM239.446 55.06H248.926C248.846 54.16 248.586 53.37 248.146 52.69C247.706 51.99 247.136 51.45 246.436 51.07C245.756 50.67 244.996 50.47 244.156 50.47C243.336 50.47 242.576 50.67 241.876 51.07C241.196 51.45 240.636 51.99 240.196 52.69C239.756 53.37 239.506 54.16 239.446 55.06ZM265.208 51.16C263.928 51.2 262.788 51.5 261.788 52.06C260.808 52.6 260.108 53.38 259.688 54.4V64H256.388V48.31H259.448V51.82C259.988 50.74 260.698 49.88 261.578 49.24C262.458 48.58 263.388 48.22 264.368 48.16C264.548 48.16 264.708 48.16 264.848 48.16C264.988 48.16 265.108 48.17 265.208 48.19V51.16ZM274.689 64.3C273.369 64.3 272.119 64.08 270.939 63.64C269.759 63.2 268.749 62.56 267.909 61.72L269.139 59.5C270.039 60.3 270.939 60.88 271.839 61.24C272.739 61.6 273.649 61.78 274.569 61.78C275.489 61.78 276.239 61.61 276.819 61.27C277.399 60.91 277.689 60.39 277.689 59.71C277.689 59.23 277.539 58.86 277.239 58.6C276.939 58.34 276.499 58.13 275.919 57.97C275.359 57.81 274.679 57.61 273.879 57.37C272.759 57.03 271.819 56.68 271.059 56.32C270.299 55.94 269.729 55.48 269.349 54.94C268.969 54.4 268.779 53.71 268.779 52.87C268.779 51.35 269.349 50.17 270.489 49.33C271.629 48.47 273.119 48.04 274.959 48.04C276.099 48.04 277.149 48.22 278.109 48.58C279.089 48.92 279.949 49.46 280.689 50.2L279.279 52.39C277.919 51.15 276.419 50.53 274.779 50.53C274.059 50.53 273.389 50.67 272.769 50.95C272.169 51.23 271.869 51.75 271.869 52.51C271.869 53.15 272.139 53.61 272.679 53.89C273.219 54.17 274.019 54.47 275.079 54.79C276.279 55.15 277.309 55.51 278.169 55.87C279.049 56.21 279.719 56.66 280.179 57.22C280.659 57.76 280.899 58.51 280.899 59.47C280.899 60.99 280.329 62.18 279.189 63.04C278.049 63.88 276.549 64.3 274.689 64.3ZM285.345 45.73V42.1H288.645V45.73H285.345ZM285.345 64V48.31H288.645V64H285.345ZM292.971 61.93L302.271 50.65H293.301V48.31H305.871V50.38L296.631 61.66H305.961V64H292.971V61.93ZM317.252 64.3C315.632 64.3 314.212 63.93 312.992 63.19C311.772 62.45 310.822 61.47 310.142 60.25C309.462 59.01 309.122 57.66 309.122 56.2C309.122 54.72 309.462 53.36 310.142 52.12C310.822 50.88 311.772 49.89 312.992 49.15C314.212 48.41 315.642 48.04 317.282 48.04C318.922 48.04 320.342 48.42 321.542 49.18C322.742 49.92 323.662 50.9 324.302 52.12C324.962 53.34 325.292 54.65 325.292 56.05C325.292 56.55 325.262 56.95 325.202 57.25H312.632C312.692 58.17 312.942 58.98 313.382 59.68C313.842 60.36 314.412 60.9 315.092 61.3C315.792 61.68 316.552 61.87 317.372 61.87C318.252 61.87 319.082 61.65 319.862 61.21C320.642 60.77 321.182 60.19 321.482 59.47L324.302 60.28C323.762 61.46 322.862 62.43 321.602 63.19C320.362 63.93 318.912 64.3 317.252 64.3ZM312.542 55.06H322.022C321.942 54.16 321.682 53.37 321.242 52.69C320.802 51.99 320.232 51.45 319.532 51.07C318.852 50.67 318.092 50.47 317.252 50.47C316.432 50.47 315.672 50.67 314.972 51.07C314.292 51.45 313.732 51.99 313.292 52.69C312.852 53.37 312.602 54.16 312.542 55.06ZM328.494 56.17C328.494 54.67 328.794 53.31 329.394 52.09C330.014 50.85 330.854 49.87 331.914 49.15C332.974 48.41 334.194 48.04 335.574 48.04C336.774 48.04 337.854 48.35 338.814 48.97C339.794 49.59 340.554 50.36 341.094 51.28V42.1H344.394V60.28C344.394 60.66 344.464 60.93 344.604 61.09C344.744 61.25 344.974 61.34 345.294 61.36V64C344.674 64.1 344.194 64.15 343.854 64.15C343.234 64.15 342.704 63.98 342.264 63.64C341.844 63.28 341.624 62.84 341.604 62.32L341.574 61.15C340.974 62.15 340.164 62.93 339.144 63.49C338.124 64.03 337.064 64.3 335.964 64.3C334.524 64.3 333.234 63.93 332.094 63.19C330.974 62.45 330.094 61.47 329.454 60.25C328.814 59.01 328.494 57.65 328.494 56.17ZM341.094 58.36V54.25C340.854 53.61 340.494 53.04 340.014 52.54C339.534 52.02 338.984 51.61 338.364 51.31C337.764 51.01 337.164 50.86 336.564 50.86C335.624 50.86 334.804 51.12 334.104 51.64C333.424 52.14 332.884 52.8 332.484 53.62C332.104 54.44 331.914 55.31 331.914 56.23C331.914 57.19 332.124 58.07 332.544 58.87C332.984 59.67 333.574 60.31 334.314 60.79C335.054 61.25 335.884 61.48 336.804 61.48C337.364 61.48 337.944 61.35 338.544 61.09C339.164 60.81 339.704 60.44 340.164 59.98C340.624 59.5 340.934 58.96 341.094 58.36ZM1.05 88.2C1.05 86.9 1.28 85.62 1.74 84.36C2.2 83.1 2.87 81.96 3.75 80.94C4.65 79.92 5.73 79.11 6.99 78.51C8.27 77.89 9.73 77.58 11.37 77.58C13.29 77.58 14.95 78.01 16.35 78.87C17.75 79.73 18.79 80.85 19.47 82.23L16.83 84C16.43 83.14 15.92 82.47 15.3 81.99C14.7 81.49 14.04 81.14 13.32 80.94C12.62 80.72 11.93 80.61 11.25 80.61C10.13 80.61 9.15 80.84 8.31 81.3C7.47 81.74 6.76 82.33 6.18 83.07C5.62 83.81 5.19 84.64 4.89 85.56C4.61 86.48 4.47 87.4 4.47 88.32C4.47 89.7 4.76 90.99 5.34 92.19C5.94 93.37 6.75 94.33 7.77 95.07C8.81 95.79 10 96.15 11.34 96.15C12.02 96.15 12.73 96.03 13.47 95.79C14.21 95.55 14.89 95.18 15.51 94.68C16.13 94.16 16.63 93.48 17.01 92.64L19.8 94.23C19.36 95.29 18.67 96.19 17.73 96.93C16.81 97.67 15.77 98.23 14.61 98.61C13.47 98.99 12.34 99.18 11.22 99.18C9.72 99.18 8.35 98.87 7.11 98.25C5.87 97.61 4.8 96.77 3.9 95.73C3 94.67 2.3 93.49 1.8 92.19C1.3 90.87 1.05 89.54 1.05 88.2ZM32.8078 86.16C31.5278 86.2 30.3878 86.5 29.3878 87.06C28.4078 87.6 27.7078 88.38 27.2878 89.4V99H23.9878V83.31H27.0478V86.82C27.5878 85.74 28.2978 84.88 29.1778 84.24C30.0578 83.58 30.9878 83.22 31.9678 83.16C32.1478 83.16 32.3078 83.16 32.4478 83.16C32.5878 83.16 32.7078 83.17 32.8078 83.19V86.16ZM43.5548 99.3C41.9348 99.3 40.5148 98.93 39.2948 98.19C38.0748 97.45 37.1248 96.47 36.4448 95.25C35.7648 94.01 35.4248 92.66 35.4248 91.2C35.4248 89.72 35.7648 88.36 36.4448 87.12C37.1248 85.88 38.0748 84.89 39.2948 84.15C40.5148 83.41 41.9448 83.04 43.5848 83.04C45.2248 83.04 46.6448 83.42 47.8448 84.18C49.0448 84.92 49.9648 85.9 50.6048 87.12C51.2648 88.34 51.5948 89.65 51.5948 91.05C51.5948 91.55 51.5648 91.95 51.5048 92.25H38.9348C38.9948 93.17 39.2448 93.98 39.6848 94.68C40.1448 95.36 40.7148 95.9 41.3948 96.3C42.0948 96.68 42.8548 96.87 43.6748 96.87C44.5548 96.87 45.3848 96.65 46.1648 96.21C46.9448 95.77 47.4848 95.19 47.7848 94.47L50.6048 95.28C50.0648 96.46 49.1648 97.43 47.9048 98.19C46.6648 98.93 45.2148 99.3 43.5548 99.3ZM38.8448 90.06H48.3248C48.2448 89.16 47.9848 88.37 47.5448 87.69C47.1048 86.99 46.5348 86.45 45.8348 86.07C45.1548 85.67 44.3948 85.47 43.5548 85.47C42.7348 85.47 41.9748 85.67 41.2748 86.07C40.5948 86.45 40.0348 86.99 39.5948 87.69C39.1548 88.37 38.9048 89.16 38.8448 90.06ZM74.9072 83.31H78.0572L71.4572 99H68.6372L65.8172 91.92L62.9972 99H60.1772L53.5472 83.31H56.6972L61.7372 95.79L63.9572 90L61.2572 83.34H64.0472L65.8172 88.23L67.5572 83.34H70.3472L67.6772 90L69.8972 95.79L74.9072 83.31ZM102.832 82.71C102.572 82.41 102.142 82.1 101.542 81.78C100.962 81.44 100.282 81.15 99.502 80.91C98.722 80.67 97.912 80.55 97.072 80.55C95.652 80.55 94.602 80.81 93.922 81.33C93.262 81.85 92.932 82.57 92.932 83.49C92.932 84.17 93.122 84.71 93.502 85.11C93.882 85.49 94.462 85.82 95.242 86.1C96.022 86.36 97.002 86.63 98.182 86.91C99.622 87.25 100.862 87.66 101.902 88.14C102.962 88.6 103.772 89.22 104.332 90C104.912 90.78 105.202 91.81 105.202 93.09C105.202 94.55 104.852 95.73 104.152 96.63C103.452 97.53 102.502 98.19 101.302 98.61C100.122 99.01 98.822 99.21 97.402 99.21C95.782 99.21 94.212 98.96 92.692 98.46C91.172 97.96 89.812 97.25 88.612 96.33L90.142 93.45C90.482 93.79 91.022 94.18 91.762 94.62C92.502 95.04 93.362 95.41 94.342 95.73C95.342 96.03 96.382 96.18 97.462 96.18C98.782 96.18 99.802 95.95 100.522 95.49C101.242 95.01 101.602 94.33 101.602 93.45C101.602 92.73 101.362 92.16 100.882 91.74C100.422 91.3 99.752 90.94 98.872 90.66C98.012 90.36 96.972 90.05 95.752 89.73C94.352 89.37 93.182 88.96 92.242 88.5C91.302 88.04 90.592 87.46 90.112 86.76C89.652 86.06 89.422 85.15 89.422 84.03C89.422 82.63 89.762 81.45 90.442 80.49C91.122 79.51 92.042 78.78 93.202 78.3C94.382 77.8 95.702 77.55 97.162 77.55C98.602 77.55 99.932 77.78 101.152 78.24C102.372 78.7 103.442 79.27 104.362 79.95L102.832 82.71ZM128.743 83.31H131.893L125.293 99H122.473L119.653 91.92L116.833 99H114.013L107.383 83.31H110.533L115.573 95.79L117.793 90L115.093 83.34H117.883L119.653 88.23L121.393 83.34H124.183L121.513 90L123.733 95.79L128.743 83.31ZM142.168 99.3C140.548 99.3 139.128 98.93 137.908 98.19C136.688 97.45 135.738 96.47 135.058 95.25C134.378 94.01 134.038 92.66 134.038 91.2C134.038 89.72 134.378 88.36 135.058 87.12C135.738 85.88 136.688 84.89 137.908 84.15C139.128 83.41 140.558 83.04 142.198 83.04C143.838 83.04 145.258 83.42 146.458 84.18C147.658 84.92 148.578 85.9 149.218 87.12C149.878 88.34 150.208 89.65 150.208 91.05C150.208 91.55 150.178 91.95 150.118 92.25H137.548C137.608 93.17 137.858 93.98 138.298 94.68C138.758 95.36 139.328 95.9 140.008 96.3C140.708 96.68 141.468 96.87 142.288 96.87C143.168 96.87 143.998 96.65 144.778 96.21C145.558 95.77 146.098 95.19 146.398 94.47L149.218 95.28C148.678 96.46 147.778 97.43 146.518 98.19C145.278 98.93 143.828 99.3 142.168 99.3ZM137.458 90.06H146.938C146.858 89.16 146.598 88.37 146.158 87.69C145.718 86.99 145.148 86.45 144.448 86.07C143.768 85.67 143.008 85.47 142.168 85.47C141.348 85.47 140.588 85.67 139.888 86.07C139.208 86.45 138.648 86.99 138.208 87.69C137.768 88.37 137.518 89.16 137.458 90.06ZM153.26 94.41C153.26 93.41 153.54 92.54 154.1 91.8C154.66 91.04 155.44 90.46 156.44 90.06C157.46 89.64 158.63 89.43 159.95 89.43C160.65 89.43 161.36 89.49 162.08 89.61C162.82 89.71 163.47 89.86 164.03 90.06V89.07C164.03 87.97 163.7 87.11 163.04 86.49C162.38 85.87 161.43 85.56 160.19 85.56C159.33 85.56 158.5 85.71 157.7 86.01C156.9 86.31 156.07 86.75 155.21 87.33L154.1 85.11C155.14 84.43 156.18 83.92 157.22 83.58C158.28 83.22 159.39 83.04 160.55 83.04C162.65 83.04 164.3 83.6 165.5 84.72C166.72 85.82 167.33 87.39 167.33 89.43V95.28C167.33 95.66 167.39 95.93 167.51 96.09C167.65 96.25 167.88 96.34 168.2 96.36V99C167.9 99.06 167.63 99.1 167.39 99.12C167.15 99.14 166.95 99.15 166.79 99.15C166.07 99.15 165.53 98.98 165.17 98.64C164.83 98.28 164.63 97.88 164.57 97.44L164.48 96.54C163.8 97.42 162.93 98.1 161.87 98.58C160.81 99.06 159.74 99.3 158.66 99.3C157.62 99.3 156.69 99.09 155.87 98.67C155.05 98.23 154.41 97.64 153.95 96.9C153.49 96.16 153.26 95.33 153.26 94.41ZM163.25 95.37C163.77 94.85 164.03 94.36 164.03 93.9V92.1C162.85 91.66 161.65 91.44 160.43 91.44C159.23 91.44 158.25 91.69 157.49 92.19C156.75 92.67 156.38 93.32 156.38 94.14C156.38 94.82 156.65 95.45 157.19 96.03C157.75 96.59 158.55 96.87 159.59 96.87C160.29 96.87 160.97 96.73 161.63 96.45C162.29 96.17 162.83 95.81 163.25 95.37ZM181.446 98.19C181.026 98.39 180.446 98.62 179.706 98.88C178.966 99.12 178.176 99.24 177.336 99.24C176.296 99.24 175.396 98.96 174.636 98.4C173.896 97.84 173.526 96.93 173.526 95.67V85.86H171.456V83.31H173.526V78.15H176.826V83.31H180.246V85.86H176.826V94.62C176.866 95.18 177.036 95.59 177.336 95.85C177.656 96.09 178.046 96.21 178.506 96.21C178.966 96.21 179.406 96.13 179.826 95.97C180.246 95.81 180.556 95.68 180.756 95.58L181.446 98.19ZM190.812 99.3C189.492 99.3 188.242 99.08 187.062 98.64C185.882 98.2 184.872 97.56 184.032 96.72L185.262 94.5C186.162 95.3 187.062 95.88 187.962 96.24C188.862 96.6 189.772 96.78 190.692 96.78C191.612 96.78 192.362 96.61 192.942 96.27C193.522 95.91 193.812 95.39 193.812 94.71C193.812 94.23 193.662 93.86 193.362 93.6C193.062 93.34 192.622 93.13 192.042 92.97C191.482 92.81 190.802 92.61 190.002 92.37C188.882 92.03 187.942 91.68 187.182 91.32C186.422 90.94 185.852 90.48 185.472 89.94C185.092 89.4 184.902 88.71 184.902 87.87C184.902 86.35 185.472 85.17 186.612 84.33C187.752 83.47 189.242 83.04 191.082 83.04C192.222 83.04 193.272 83.22 194.232 83.58C195.212 83.92 196.072 84.46 196.812 85.2L195.402 87.39C194.042 86.15 192.542 85.53 190.902 85.53C190.182 85.53 189.512 85.67 188.892 85.95C188.292 86.23 187.992 86.75 187.992 87.51C187.992 88.15 188.262 88.61 188.802 88.89C189.342 89.17 190.142 89.47 191.202 89.79C192.402 90.15 193.432 90.51 194.292 90.87C195.172 91.21 195.842 91.66 196.302 92.22C196.782 92.76 197.022 93.51 197.022 94.47C197.022 95.99 196.452 97.18 195.312 98.04C194.172 98.88 192.672 99.3 190.812 99.3ZM215.538 99H212.238V90.21C212.238 88.79 211.978 87.73 211.458 87.03C210.938 86.33 210.208 85.98 209.268 85.98C208.668 85.98 208.058 86.14 207.438 86.46C206.838 86.78 206.298 87.22 205.818 87.78C205.338 88.32 204.988 88.95 204.768 89.67V99H201.468V77.1H204.768V86.46C205.368 85.38 206.188 84.54 207.228 83.94C208.268 83.34 209.388 83.04 210.588 83.04C211.888 83.04 212.898 83.34 213.618 83.94C214.338 84.52 214.838 85.3 215.118 86.28C215.398 87.24 215.538 88.29 215.538 89.43V99ZM220.869 80.73V77.1H224.169V80.73H220.869ZM220.869 99V83.31H224.169V99H220.869ZM238.454 86.16C237.174 86.2 236.034 86.5 235.034 87.06C234.054 87.6 233.354 88.38 232.934 89.4V99H229.634V83.31H232.694V86.82C233.234 85.74 233.944 84.88 234.824 84.24C235.704 83.58 236.634 83.22 237.614 83.16C237.794 83.16 237.954 83.16 238.094 83.16C238.234 83.16 238.354 83.17 238.454 83.19V86.16ZM251.085 98.19C250.665 98.39 250.085 98.62 249.345 98.88C248.605 99.12 247.815 99.24 246.975 99.24C245.935 99.24 245.035 98.96 244.275 98.4C243.535 97.84 243.165 96.93 243.165 95.67V85.86H241.095V83.31H243.165V78.15H246.465V83.31H249.885V85.86H246.465V94.62C246.505 95.18 246.675 95.59 246.975 95.85C247.295 96.09 247.685 96.21 248.145 96.21C248.605 96.21 249.045 96.13 249.465 95.97C249.885 95.81 250.195 95.68 250.395 95.58L251.085 98.19Z" fill="black"/>
<path d="M10.943 137.3C9.76301 137.3 8.72301 137.05 7.82301 136.55C6.94301 136.03 6.26301 135.33 5.78301 134.45V143.39H0.983008V121.25H5.15301V123.8C5.73301 122.9 6.46301 122.2 7.34301 121.7C8.22301 121.2 9.25301 120.95 10.433 120.95C11.833 120.95 13.083 121.32 14.183 122.06C15.303 122.78 16.173 123.75 16.793 124.97C17.433 126.19 17.753 127.56 17.753 129.08C17.753 130.64 17.463 132.04 16.883 133.28C16.303 134.52 15.493 135.5 14.453 136.22C13.433 136.94 12.263 137.3 10.943 137.3ZM9.32301 133.25C10.003 133.25 10.613 133.06 11.153 132.68C11.693 132.28 12.113 131.77 12.413 131.15C12.713 130.51 12.863 129.81 12.863 129.05C12.863 127.89 12.503 126.93 11.783 126.17C11.083 125.41 10.183 125.03 9.08301 125.03C8.42301 125.03 7.78301 125.23 7.16301 125.63C6.56301 126.01 6.10301 126.53 5.78301 127.19V130.43C6.10301 131.23 6.58301 131.9 7.22301 132.44C7.88301 132.98 8.58301 133.25 9.32301 133.25ZM31.6625 125.36C30.5025 125.38 29.4525 125.57 28.5125 125.93C27.5725 126.29 26.8925 126.83 26.4725 127.55V137H21.6725V121.25H26.0825V124.43C26.6225 123.37 27.3225 122.54 28.1825 121.94C29.0425 121.34 29.9425 121.03 30.8825 121.01C31.2825 121.01 31.5425 121.02 31.6625 121.04V125.36ZM35.1842 119.45V115.1H39.9842V119.45H35.1842ZM35.1842 137V121.25H39.9842V137H35.1842ZM52.3001 137.3C50.5401 137.3 49.0201 136.92 47.7401 136.16C46.4801 135.4 45.5101 134.4 44.8301 133.16C44.1701 131.92 43.8401 130.57 43.8401 129.11C43.8401 127.67 44.1701 126.33 44.8301 125.09C45.5101 123.85 46.4801 122.85 47.7401 122.09C49.0001 121.33 50.5201 120.95 52.3001 120.95C54.1001 120.95 55.6201 121.34 56.8601 122.12C58.1201 122.88 59.0601 123.88 59.6801 125.12L55.0001 126.53C54.3801 125.53 53.4701 125.03 52.2701 125.03C51.2901 125.03 50.4601 125.4 49.7801 126.14C49.1001 126.88 48.7601 127.87 48.7601 129.11C48.7601 130.35 49.1001 131.35 49.7801 132.11C50.4601 132.87 51.2901 133.25 52.2701 133.25C52.8701 133.25 53.4201 133.11 53.9201 132.83C54.4201 132.53 54.7901 132.15 55.0301 131.69L59.7101 133.13C59.1301 134.35 58.2001 135.35 56.9201 136.13C55.6601 136.91 54.1201 137.3 52.3001 137.3ZM70.763 137.3C68.983 137.3 67.463 136.93 66.203 136.19C64.943 135.45 63.973 134.47 63.293 133.25C62.633 132.03 62.303 130.71 62.303 129.29C62.303 127.77 62.633 126.38 63.293 125.12C63.953 123.86 64.913 122.85 66.173 122.09C67.433 121.33 68.963 120.95 70.763 120.95C72.543 120.95 74.063 121.33 75.323 122.09C76.583 122.85 77.533 123.85 78.173 125.09C78.833 126.33 79.163 127.66 79.163 129.08C79.163 129.66 79.123 130.17 79.043 130.61H67.403C67.483 131.67 67.863 132.48 68.543 133.04C69.243 133.58 70.033 133.85 70.913 133.85C71.613 133.85 72.283 133.68 72.923 133.34C73.563 133 74.003 132.54 74.243 131.96L78.323 133.1C77.703 134.34 76.733 135.35 75.413 136.13C74.113 136.91 72.563 137.3 70.763 137.3ZM67.283 127.67H74.123C74.023 126.67 73.653 125.88 73.013 125.3C72.393 124.7 71.623 124.4 70.703 124.4C69.783 124.4 69.003 124.7 68.363 125.3C67.743 125.9 67.383 126.69 67.283 127.67ZM83.3485 126.32V121.43H87.2485V126.32H83.3485ZM83.3485 137V132.11H87.2485V137H83.3485ZM114.663 120.71C114.443 120.45 114.073 120.17 113.553 119.87C113.053 119.55 112.463 119.27 111.783 119.03C111.103 118.79 110.383 118.64 109.623 118.58V124.79C109.743 124.83 109.883 124.87 110.043 124.91C111.483 125.25 112.723 125.66 113.763 126.14C114.823 126.6 115.633 127.22 116.193 128C116.773 128.78 117.063 129.81 117.063 131.09C117.063 132.47 116.743 133.6 116.103 134.48C115.463 135.36 114.593 136.02 113.493 136.46C112.393 136.9 111.173 137.15 109.833 137.21V140.36H108.003V137.18C105.143 136.94 102.623 135.99 100.443 134.33L102.003 131.45C102.303 131.75 102.763 132.09 103.383 132.47C104.003 132.85 104.723 133.2 105.543 133.52C106.383 133.82 107.273 134.02 108.213 134.12V127.88C108.053 127.84 107.853 127.79 107.613 127.73C106.213 127.37 105.043 126.96 104.103 126.5C103.163 126.04 102.453 125.46 101.973 124.76C101.513 124.06 101.283 123.15 101.283 122.03C101.283 120.73 101.573 119.62 102.153 118.7C102.753 117.78 103.553 117.06 104.553 116.54C105.573 116.02 106.723 115.7 108.003 115.58V112.55H109.833V115.58C111.113 115.66 112.283 115.92 113.343 116.36C114.423 116.8 115.373 117.33 116.193 117.95L114.663 120.71ZM104.793 121.49C104.793 122.31 105.073 122.93 105.633 123.35C106.193 123.75 107.053 124.11 108.213 124.43V118.58C107.053 118.66 106.193 118.96 105.633 119.48C105.073 119.98 104.793 120.65 104.793 121.49ZM113.463 131.45C113.463 130.59 113.123 129.94 112.443 129.5C111.783 129.04 110.843 128.63 109.623 128.27V134.18C110.843 134.14 111.783 133.89 112.443 133.43C113.123 132.97 113.463 132.31 113.463 131.45ZM120.961 137C120.961 135.88 121.091 134.87 121.351 133.97C121.631 133.05 122.111 132.21 122.791 131.45C123.491 130.67 124.491 129.92 125.791 129.2C126.711 128.68 127.561 128.22 128.341 127.82C129.141 127.4 129.771 126.97 130.231 126.53C130.711 126.09 130.951 125.57 130.951 124.97C130.951 124.33 130.671 123.76 130.111 123.26C129.571 122.74 128.791 122.48 127.771 122.48C126.691 122.48 125.781 122.74 125.041 123.26C124.301 123.76 123.711 124.27 123.271 124.79L121.201 122.42C121.481 122.12 121.951 121.75 122.611 121.31C123.271 120.85 124.081 120.45 125.041 120.11C126.021 119.75 127.121 119.57 128.341 119.57C130.261 119.57 131.771 120.04 132.871 120.98C133.971 121.92 134.521 123.1 134.521 124.52C134.521 125.5 134.271 126.34 133.771 127.04C133.271 127.72 132.671 128.29 131.971 128.75C131.291 129.21 130.661 129.59 130.081 129.89C129.041 130.41 128.181 130.87 127.501 131.27C126.841 131.67 126.311 132.08 125.911 132.5C125.511 132.92 125.191 133.43 124.951 134.03H134.851V137H120.961ZM154.646 129.92C154.646 131.28 154.306 132.52 153.626 133.64C152.946 134.76 152.026 135.65 150.866 136.31C149.706 136.97 148.406 137.3 146.966 137.3C145.386 137.3 144.016 136.93 142.856 136.19C141.696 135.43 140.786 134.34 140.126 132.92C139.486 131.5 139.166 129.81 139.166 127.85C139.166 123.79 139.906 120.73 141.386 118.67C142.866 116.59 144.836 115.55 147.296 115.55C148.656 115.55 149.896 115.87 151.016 116.51C152.156 117.13 153.076 118 153.776 119.12L151.826 121.16C151.386 120.32 150.756 119.66 149.936 119.18C149.116 118.68 148.216 118.43 147.236 118.43C145.756 118.43 144.566 119.07 143.666 120.35C142.766 121.61 142.296 123.39 142.256 125.69C142.696 124.81 143.356 124.11 144.236 123.59C145.136 123.05 146.146 122.78 147.266 122.78C148.646 122.78 149.896 123.1 151.016 123.74C152.136 124.36 153.016 125.21 153.656 126.29C154.316 127.37 154.646 128.58 154.646 129.92ZM146.966 134.48C147.786 134.48 148.536 134.28 149.216 133.88C149.916 133.46 150.466 132.91 150.866 132.23C151.286 131.53 151.496 130.76 151.496 129.92C151.496 129.1 151.286 128.35 150.866 127.67C150.466 126.99 149.926 126.45 149.246 126.05C148.566 125.63 147.806 125.42 146.966 125.42C146.146 125.42 145.386 125.63 144.686 126.05C144.006 126.45 143.456 126.99 143.036 127.67C142.636 128.35 142.436 129.1 142.436 129.92C142.436 130.74 142.646 131.5 143.066 132.2C143.486 132.88 144.036 133.43 144.716 133.85C145.396 134.27 146.146 134.48 146.966 134.48ZM159.278 137V133.16H162.008V137H159.278ZM166.355 127.25C166.355 125.89 166.695 124.65 167.375 123.53C168.055 122.41 168.975 121.52 170.135 120.86C171.295 120.2 172.605 119.87 174.065 119.87C175.625 119.87 176.985 120.25 178.145 121.01C179.325 121.75 180.235 122.83 180.875 124.25C181.515 125.67 181.835 127.36 181.835 129.32C181.835 133.38 181.095 136.44 179.615 138.5C178.135 140.58 176.165 141.62 173.705 141.62C172.345 141.62 171.095 141.3 169.955 140.66C168.835 140.04 167.925 139.17 167.225 138.05L169.175 136.01C169.635 136.85 170.265 137.51 171.065 137.99C171.885 138.49 172.785 138.74 173.765 138.74C175.265 138.74 176.455 138.11 177.335 136.85C178.235 135.57 178.705 133.78 178.745 131.48C178.325 132.36 177.665 133.07 176.765 133.61C175.885 134.13 174.875 134.39 173.735 134.39C172.355 134.39 171.105 134.08 169.985 133.46C168.865 132.82 167.975 131.96 167.315 130.88C166.675 129.8 166.355 128.59 166.355 127.25ZM174.035 122.69C173.215 122.69 172.455 122.9 171.755 123.32C171.075 123.72 170.525 124.27 170.105 124.97C169.705 125.65 169.505 126.41 169.505 127.25C169.505 128.07 169.705 128.82 170.105 129.5C170.525 130.18 171.075 130.73 171.755 131.15C172.455 131.55 173.215 131.75 174.035 131.75C174.855 131.75 175.605 131.55 176.285 131.15C176.985 130.73 177.535 130.18 177.935 129.5C178.355 128.82 178.565 128.07 178.565 127.25C178.565 126.43 178.355 125.68 177.935 125C177.515 124.3 176.965 123.74 176.285 123.32C175.605 122.9 174.855 122.69 174.035 122.69ZM185.521 127.25C185.521 125.89 185.861 124.65 186.541 123.53C187.221 122.41 188.141 121.52 189.301 120.86C190.461 120.2 191.771 119.87 193.231 119.87C194.791 119.87 196.151 120.25 197.311 121.01C198.491 121.75 199.401 122.83 200.041 124.25C200.681 125.67 201.001 127.36 201.001 129.32C201.001 133.38 200.261 136.44 198.781 138.5C197.301 140.58 195.331 141.62 192.871 141.62C191.511 141.62 190.261 141.3 189.121 140.66C188.001 140.04 187.091 139.17 186.391 138.05L188.341 136.01C188.801 136.85 189.431 137.51 190.231 137.99C191.051 138.49 191.951 138.74 192.931 138.74C194.431 138.74 195.621 138.11 196.501 136.85C197.401 135.57 197.871 133.78 197.911 131.48C197.491 132.36 196.831 133.07 195.931 133.61C195.051 134.13 194.041 134.39 192.901 134.39C191.521 134.39 190.271 134.08 189.151 133.46C188.031 132.82 187.141 131.96 186.481 130.88C185.841 129.8 185.521 128.59 185.521 127.25ZM193.201 122.69C192.381 122.69 191.621 122.9 190.921 123.32C190.241 123.72 189.691 124.27 189.271 124.97C188.871 125.65 188.671 126.41 188.671 127.25C188.671 128.07 188.871 128.82 189.271 129.5C189.691 130.18 190.241 130.73 190.921 131.15C191.621 131.55 192.381 131.75 193.201 131.75C194.021 131.75 194.771 131.55 195.451 131.15C196.151 130.73 196.701 130.18 197.101 129.5C197.521 128.82 197.731 128.07 197.731 127.25C197.731 126.43 197.521 125.68 197.101 125C196.681 124.3 196.131 123.74 195.451 123.32C194.771 122.9 194.021 122.69 193.201 122.69Z" fill="black"/>
</svg>
