<svg width="373" height="239" viewBox="0 0 373 239" fill="none" xmlns="http://www.w3.org/2000/svg">
<path d="M0 30C0 13.4315 13.4315 0 30 0H343C359.569 0 373 13.4315 373 30V209C373 225.569 359.569 239 343 239H30C13.4315 239 0 225.569 0 209V30Z" fill="#C4C4C4"/>
<path d="M271.125 82.225C268.995 82.225 267.015 81.79 265.185 80.92C263.385 80.05 261.795 78.85 260.415 77.32C259.065 75.79 258 74.05 257.22 72.1C256.47 70.15 256.095 68.08 256.095 65.89C256.095 63.73 256.47 61.69 257.22 59.77C257.97 57.82 259.035 56.11 260.415 54.64C261.795 53.14 263.4 51.97 265.23 51.13C267.09 50.26 269.115 49.825 271.305 49.825C274.335 49.825 276.885 50.47 278.955 51.76C281.025 53.02 282.6 54.7 283.68 56.8L279.81 59.59C278.94 57.85 277.74 56.545 276.21 55.675C274.68 54.805 273 54.37 271.17 54.37C269.16 54.37 267.405 54.925 265.905 56.035C264.405 57.115 263.25 58.54 262.44 60.31C261.63 62.08 261.225 63.985 261.225 66.025C261.225 68.185 261.675 70.15 262.575 71.92C263.475 73.66 264.69 75.055 266.22 76.105C267.78 77.155 269.55 77.68 271.53 77.68C274.83 77.68 277.8 76.105 280.44 72.955V69.58H273.735V65.845H284.67V82H280.44V78.04C277.77 80.83 274.665 82.225 271.125 82.225ZM313.234 77.545V82H291.319V50.05H312.829V54.505H296.359V63.595H310.624V67.78H296.359V77.545H313.234ZM342.778 54.505H332.158V82H327.073V54.505H316.408V50.05H342.778V54.505ZM136.657 135V103.05H141.697V135H136.657ZM154.858 112.41V135H149.818V103.05H153.958L172.048 126.135V103.095H177.133V135H172.723L154.858 112.41ZM204.115 110.565C203.725 110.115 203.08 109.65 202.18 109.17C201.31 108.66 200.29 108.225 199.12 107.865C197.95 107.505 196.735 107.325 195.475 107.325C193.345 107.325 191.77 107.715 190.75 108.495C189.76 109.275 189.265 110.355 189.265 111.735C189.265 112.755 189.55 113.565 190.12 114.165C190.69 114.735 191.56 115.23 192.73 115.65C193.9 116.04 195.37 116.445 197.14 116.865C199.3 117.375 201.16 117.99 202.72 118.71C204.31 119.4 205.525 120.33 206.365 121.5C207.235 122.67 207.67 124.215 207.67 126.135C207.67 128.325 207.145 130.095 206.095 131.445C205.045 132.795 203.62 133.785 201.82 134.415C200.05 135.015 198.1 135.315 195.97 135.315C193.54 135.315 191.185 134.94 188.905 134.19C186.625 133.44 184.585 132.375 182.785 130.995L185.08 126.675C185.59 127.185 186.4 127.77 187.51 128.43C188.62 129.06 189.91 129.615 191.38 130.095C192.88 130.545 194.44 130.77 196.06 130.77C198.04 130.77 199.57 130.425 200.65 129.735C201.73 129.015 202.27 127.995 202.27 126.675C202.27 125.595 201.91 124.74 201.19 124.11C200.5 123.45 199.495 122.91 198.175 122.49C196.885 122.04 195.325 121.575 193.495 121.095C191.395 120.555 189.64 119.94 188.23 119.25C186.82 118.56 185.755 117.69 185.035 116.64C184.345 115.59 184 114.225 184 112.545C184 110.445 184.51 108.675 185.53 107.235C186.55 105.765 187.93 104.67 189.67 103.95C191.44 103.2 193.42 102.825 195.61 102.825C197.77 102.825 199.765 103.17 201.595 103.86C203.425 104.55 205.03 105.405 206.41 106.425L204.115 110.565ZM213.625 135V103.05H227.035C228.475 103.05 229.795 103.35 230.995 103.95C232.225 104.55 233.275 105.345 234.145 106.335C235.045 107.325 235.735 108.435 236.215 109.665C236.695 110.895 236.935 112.155 236.935 113.445C236.935 115.245 236.53 116.94 235.72 118.53C234.91 120.12 233.785 121.41 232.345 122.4C230.905 123.39 229.225 123.885 227.305 123.885H218.665V135H213.625ZM218.665 119.43H226.99C228.4 119.43 229.555 118.86 230.455 117.72C231.355 116.58 231.805 115.155 231.805 113.445C231.805 112.275 231.565 111.255 231.085 110.385C230.605 109.485 229.975 108.78 229.195 108.27C228.445 107.76 227.62 107.505 226.72 107.505H218.665V119.43ZM242.562 135V103.05H247.602V135H242.562ZM255.723 135V103.05H269.628C271.068 103.05 272.388 103.35 273.588 103.95C274.788 104.55 275.823 105.345 276.693 106.335C277.593 107.325 278.283 108.435 278.763 109.665C279.273 110.895 279.528 112.155 279.528 113.445C279.528 114.885 279.258 116.25 278.718 117.54C278.208 118.8 277.488 119.895 276.558 120.825C275.628 121.755 274.533 122.43 273.273 122.85L280.788 135H275.118L268.188 123.885H260.763V135H255.723ZM260.763 119.43H269.583C270.513 119.43 271.338 119.16 272.058 118.62C272.778 118.05 273.348 117.315 273.768 116.415C274.188 115.515 274.398 114.525 274.398 113.445C274.398 112.335 274.158 111.345 273.678 110.475C273.198 109.575 272.568 108.855 271.788 108.315C271.008 107.775 270.183 107.505 269.313 107.505H260.763V119.43ZM308.289 130.545V135H286.374V103.05H307.884V107.505H291.414V116.595H305.679V120.78H291.414V130.545H308.289ZM314.388 135V103.05H325.728C329.178 103.05 332.043 103.77 334.323 105.21C336.633 106.62 338.373 108.54 339.543 110.97C340.713 113.37 341.298 116.04 341.298 118.98C341.298 122.22 340.653 125.04 339.363 127.44C338.073 129.84 336.258 131.7 333.918 133.02C331.608 134.34 328.878 135 325.728 135H314.388ZM336.168 118.98C336.168 116.73 335.748 114.75 334.908 113.04C334.098 111.33 332.913 109.98 331.353 108.99C329.823 108 327.948 107.505 325.728 107.505H319.428V130.545H325.728C327.978 130.545 329.868 130.035 331.398 129.015C332.958 127.995 334.143 126.615 334.953 124.875C335.763 123.135 336.168 121.17 336.168 118.98Z" fill="black"/>
</svg>
