<svg width="309" height="142" viewBox="0 0 309 142" fill="none" xmlns="http://www.w3.org/2000/svg">
<path d="M0 30C0 13.4315 13.4315 0 30 0H279C295.569 0 309 13.4315 309 30V112C309 128.569 295.569 142 279 142H30C13.4315 142 0 128.569 0 112V30Z" fill="#C4C4C4"/>
<path d="M83.6162 82V50.05H88.6562V77.545H105.801V82H83.6162ZM123.236 82.225C120.956 82.225 118.871 81.775 116.981 80.875C115.121 79.975 113.516 78.76 112.166 77.23C110.816 75.67 109.766 73.93 109.016 72.01C108.296 70.06 107.936 68.065 107.936 66.025C107.936 63.895 108.326 61.87 109.106 59.95C109.886 58 110.966 56.275 112.346 54.775C113.726 53.245 115.346 52.045 117.206 51.175C119.096 50.275 121.136 49.825 123.326 49.825C125.606 49.825 127.676 50.29 129.536 51.22C131.426 52.15 133.031 53.395 134.351 54.955C135.701 56.515 136.736 58.255 137.456 60.175C138.206 62.095 138.581 64.06 138.581 66.07C138.581 68.2 138.191 70.24 137.411 72.19C136.661 74.11 135.596 75.835 134.216 77.365C132.836 78.865 131.201 80.05 129.311 80.92C127.451 81.79 125.426 82.225 123.236 82.225ZM113.066 66.025C113.066 68.035 113.486 69.94 114.326 71.74C115.166 73.51 116.336 74.95 117.836 76.06C119.366 77.14 121.181 77.68 123.281 77.68C124.871 77.68 126.296 77.35 127.556 76.69C128.816 76.03 129.881 75.145 130.751 74.035C131.621 72.895 132.281 71.635 132.731 70.255C133.181 68.875 133.406 67.465 133.406 66.025C133.406 64.015 132.986 62.125 132.146 60.355C131.336 58.585 130.166 57.16 128.636 56.08C127.106 54.97 125.321 54.415 123.281 54.415C121.661 54.415 120.221 54.745 118.961 55.405C117.701 56.065 116.636 56.95 115.766 58.06C114.896 59.17 114.221 60.415 113.741 61.795C113.291 63.175 113.066 64.585 113.066 66.025ZM157.748 82.225C155.618 82.225 153.638 81.79 151.808 80.92C150.008 80.05 148.418 78.85 147.038 77.32C145.688 75.79 144.623 74.05 143.843 72.1C143.093 70.15 142.718 68.08 142.718 65.89C142.718 63.73 143.093 61.69 143.843 59.77C144.593 57.82 145.658 56.11 147.038 54.64C148.418 53.14 150.023 51.97 151.853 51.13C153.713 50.26 155.738 49.825 157.928 49.825C160.958 49.825 163.508 50.47 165.578 51.76C167.648 53.02 169.223 54.7 170.303 56.8L166.433 59.59C165.563 57.85 164.363 56.545 162.833 55.675C161.303 54.805 159.623 54.37 157.793 54.37C155.783 54.37 154.028 54.925 152.528 56.035C151.028 57.115 149.873 58.54 149.063 60.31C148.253 62.08 147.848 63.985 147.848 66.025C147.848 68.185 148.298 70.15 149.198 71.92C150.098 73.66 151.313 75.055 152.843 76.105C154.403 77.155 156.173 77.68 158.153 77.68C161.453 77.68 164.423 76.105 167.063 72.955V69.58H160.358V65.845H171.293V82H167.063V78.04C164.393 80.83 161.288 82.225 157.748 82.225ZM177.942 82V50.05H182.982V82H177.942ZM196.143 59.41V82H191.103V50.05H195.243L213.333 73.135V50.095H218.418V82H214.008L196.143 59.41Z" fill="black"/>
</svg>
