<svg width="274" height="69" viewBox="0 0 274 69" fill="none" xmlns="http://www.w3.org/2000/svg">
<path d="M15.1627 24.0522V32.7651H32.6452V41.4214H15.1627V55H3.96042V15.3958H35.0214V24.0522H15.1627ZM39.1988 24.3351H49.9485V55H39.1988V24.3351ZM44.5737 20.9404C42.6123 20.9404 41.0282 20.3935 39.8212 19.2997C38.6142 18.2058 38.0107 16.848 38.0107 15.2261C38.0107 13.6042 38.6142 12.2464 39.8212 11.1525C41.0282 10.0587 42.6123 9.51178 44.5737 9.51178C46.535 9.51178 48.1192 10.0398 49.3262 11.0959C50.5332 12.1143 51.1367 13.4345 51.1367 15.0564C51.1367 16.7537 50.5332 18.1681 49.3262 19.2997C48.1192 20.3935 46.535 20.9404 44.5737 20.9404ZM78.0945 53.7553C77.1892 54.3211 76.0765 54.7548 74.7564 55.0566C73.474 55.3583 72.0973 55.5092 70.6263 55.5092C66.6281 55.5092 63.5541 54.5285 61.4041 52.5672C59.2542 50.6058 58.1792 47.6827 58.1792 43.7977V33.5006H53.7096V25.4666H58.1792V17.4892H68.9289V25.4666H75.9445V33.5006H68.9289V43.6845C68.9289 44.7784 69.2118 45.6459 69.7776 46.2871C70.3811 46.8906 71.1732 47.1923 72.1538 47.1923C73.3985 47.1923 74.4924 46.8717 75.4353 46.2305L78.0945 53.7553ZM102.494 55.7921C98.3453 55.7921 94.6112 54.9246 91.292 53.1895C88.0105 51.4168 85.4268 48.9651 83.5409 45.8345C81.655 42.7038 80.7121 39.1583 80.7121 35.1979C80.7121 31.2375 81.655 27.692 83.5409 24.5614C85.4268 21.4307 88.0105 18.9979 91.292 17.2629C94.6112 15.4901 98.3453 14.6037 102.494 14.6037C106.115 14.6037 109.378 15.245 112.282 16.5274C115.187 17.8098 117.601 19.658 119.524 22.072L112.395 28.5218C109.831 25.4289 106.719 23.8824 103.06 23.8824C100.91 23.8824 98.9865 24.3539 97.2892 25.2969C95.6296 26.2398 94.3283 27.5788 93.3854 29.3139C92.4801 31.0112 92.0275 32.9725 92.0275 35.1979C92.0275 37.4233 92.4801 39.4035 93.3854 41.1385C94.3283 42.8359 95.6296 44.156 97.2892 45.099C98.9865 46.0419 100.91 46.5134 103.06 46.5134C106.719 46.5134 109.831 44.9669 112.395 41.874L119.524 48.3239C117.601 50.7378 115.187 52.586 112.282 53.8685C109.378 55.1509 106.115 55.7921 102.494 55.7921ZM143.981 23.8259C147.791 23.8259 150.846 24.9574 153.147 27.2205C155.486 29.4836 156.655 32.8971 156.655 37.461V55H145.905V39.2149C145.905 35.0282 144.227 32.9348 140.87 32.9348C139.022 32.9348 137.532 33.5383 136.4 34.7453C135.306 35.9523 134.759 37.7628 134.759 40.1767V55H124.01V13.0196H134.759V27.1639C135.929 26.0701 137.305 25.2403 138.89 24.6745C140.474 24.1087 142.171 23.8259 143.981 23.8259ZM195.19 39.7241C195.19 39.7995 195.133 40.6859 195.02 42.3832H172.729C173.181 43.9674 174.049 45.1933 175.331 46.0608C176.651 46.8906 178.292 47.3055 180.253 47.3055C181.724 47.3055 182.988 47.098 184.044 46.6831C185.138 46.2682 186.232 45.5893 187.326 44.6463L192.983 50.5304C190.004 53.8496 185.647 55.5092 179.914 55.5092C176.331 55.5092 173.181 54.8303 170.465 53.4724C167.75 52.1146 165.638 50.2286 164.129 47.8147C162.658 45.4007 161.922 42.6661 161.922 39.611C161.922 36.5935 162.639 33.8966 164.072 31.5204C165.543 29.1064 167.561 27.2205 170.126 25.8626C172.691 24.5048 175.576 23.8259 178.782 23.8259C181.837 23.8259 184.61 24.4671 187.099 25.7495C189.589 26.9942 191.55 28.8235 192.983 31.2375C194.454 33.6137 195.19 36.4426 195.19 39.7241ZM178.839 31.4638C177.179 31.4638 175.784 31.9353 174.652 32.8782C173.558 33.8212 172.861 35.1036 172.559 36.7255H185.119C184.817 35.1036 184.101 33.8212 182.969 32.8782C181.875 31.9353 180.498 31.4638 178.839 31.4638ZM215.818 55.5092C212.423 55.5092 209.387 54.8303 206.709 53.4724C204.031 52.1146 201.938 50.2286 200.429 47.8147C198.958 45.4007 198.222 42.6661 198.222 39.611C198.222 36.5558 198.958 33.8401 200.429 31.4638C201.938 29.0498 204.031 27.1828 206.709 25.8626C209.387 24.5048 212.423 23.8259 215.818 23.8259C219.288 23.8259 222.287 24.5802 224.814 26.089C227.341 27.56 229.133 29.6156 230.189 32.2559L221.872 36.4992C220.476 33.7458 218.439 32.369 215.761 32.369C213.838 32.369 212.235 33.0103 210.952 34.2927C209.708 35.5751 209.085 37.3479 209.085 39.611C209.085 41.9118 209.708 43.7222 210.952 45.0424C212.235 46.3248 213.838 46.966 215.761 46.966C218.439 46.966 220.476 45.5893 221.872 42.8359L230.189 47.0792C229.133 49.7194 227.341 51.7939 224.814 53.3027C222.287 54.7737 219.288 55.5092 215.818 55.5092ZM248.044 44.2503L244.875 47.4752V55H234.126V13.0196H244.875V35.0282L255.851 24.3351H268.581L255.851 37.461L269.656 55H256.643L248.044 44.2503Z" fill="black"/>
<path d="M244.915 34.7079L239.91 28.8326L234.252 34.7079L244.915 47.873L272.986 20.1283L266.784 13.709L244.915 34.7079Z" fill="white" stroke="black" stroke-width="0.652816"/>
</svg>
