<svg width="221" height="98" viewBox="0 0 221 98" fill="none" xmlns="http://www.w3.org/2000/svg">
<path d="M0 32C0 14.3269 14.3269 0 32 0H189C206.673 0 221 14.3269 221 32V66C221 83.6731 206.673 98 189 98H32C14.3269 98 0 83.6731 0 66V32Z" fill="#C4C4C4"/>
<path d="M52.154 60.25C51.1707 60.25 50.304 60.0417 49.554 59.625C48.8207 59.1917 48.254 58.6083 47.854 57.875V65.325H43.854V46.875H47.329V49C47.8123 48.25 48.4207 47.6667 49.154 47.25C49.8873 46.8333 50.7457 46.625 51.729 46.625C52.8957 46.625 53.9373 46.9333 54.854 47.55C55.7873 48.15 56.5123 48.9583 57.029 49.975C57.5623 50.9917 57.829 52.1333 57.829 53.4C57.829 54.7 57.5873 55.8667 57.104 56.9C56.6207 57.9333 55.9457 58.75 55.079 59.35C54.229 59.95 53.254 60.25 52.154 60.25ZM50.804 56.875C51.3707 56.875 51.879 56.7167 52.329 56.4C52.779 56.0667 53.129 55.6417 53.379 55.125C53.629 54.5917 53.754 54.0083 53.754 53.375C53.754 52.4083 53.454 51.6083 52.854 50.975C52.2707 50.3417 51.5207 50.025 50.604 50.025C50.054 50.025 49.5207 50.1917 49.004 50.525C48.504 50.8417 48.1207 51.275 47.854 51.825V54.525C48.1207 55.1917 48.5207 55.75 49.054 56.2C49.604 56.65 50.1873 56.875 50.804 56.875ZM68.1702 50.3C67.2035 50.3167 66.3285 50.475 65.5452 50.775C64.7619 51.075 64.1952 51.525 63.8452 52.125V60H59.8452V46.875H63.5202V49.525C63.9702 48.6417 64.5535 47.95 65.2702 47.45C65.9869 46.95 66.7369 46.6917 67.5202 46.675C67.8535 46.675 68.0702 46.6833 68.1702 46.7V50.3ZM76.0073 60.25C74.5073 60.25 73.2323 59.9333 72.1823 59.3C71.149 58.6667 70.3573 57.8333 69.8073 56.8C69.2573 55.7667 68.9823 54.65 68.9823 53.45C68.9823 52.2333 69.2573 51.1083 69.8073 50.075C70.3573 49.0417 71.1573 48.2083 72.2073 47.575C73.2573 46.9417 74.524 46.625 76.0073 46.625C77.4907 46.625 78.7573 46.9417 79.8073 47.575C80.8573 48.2083 81.6573 49.0417 82.2073 50.075C82.7573 51.1083 83.0323 52.2333 83.0323 53.45C83.0323 54.65 82.7573 55.7667 82.2073 56.8C81.6573 57.8333 80.8573 58.6667 79.8073 59.3C78.7573 59.9333 77.4907 60.25 76.0073 60.25ZM73.0823 53.45C73.0823 54.4667 73.3573 55.2917 73.9073 55.925C74.474 56.5583 75.174 56.875 76.0073 56.875C76.824 56.875 77.5073 56.5583 78.0573 55.925C78.624 55.2917 78.9073 54.4667 78.9073 53.45C78.9073 52.4333 78.624 51.6083 78.0573 50.975C77.5073 50.3417 76.824 50.025 76.0073 50.025C75.174 50.025 74.474 50.3417 73.9073 50.975C73.3573 51.6083 73.0823 52.4333 73.0823 53.45ZM84.2661 53.425C84.2661 52.1583 84.5078 51.0167 84.9911 50C85.4911 48.9667 86.1744 48.15 87.0411 47.55C87.9244 46.9333 88.9328 46.625 90.0661 46.625C90.9828 46.625 91.8078 46.85 92.5411 47.3C93.2911 47.7333 93.8661 48.3083 94.2661 49.025V41.75H98.2661V55.55C98.2661 55.95 98.3244 56.2333 98.4411 56.4C98.5744 56.5667 98.7994 56.6583 99.1161 56.675V60C98.4161 60.1333 97.8494 60.2 97.4161 60.2C96.7328 60.2 96.1744 60.05 95.7411 59.75C95.3078 59.45 95.0494 59.0333 94.9661 58.5L94.8911 57.825C94.4244 58.6417 93.7911 59.25 92.9911 59.65C92.1911 60.05 91.3494 60.25 90.4661 60.25C89.2661 60.25 88.1994 59.9583 87.2661 59.375C86.3328 58.775 85.5994 57.9583 85.0661 56.925C84.5328 55.8917 84.2661 54.725 84.2661 53.425ZM94.2911 55.05V52.3C94.0411 51.6333 93.6328 51.0917 93.0661 50.675C92.5161 50.2417 91.9411 50.025 91.3411 50.025C90.7744 50.025 90.2661 50.1833 89.8161 50.5C89.3661 50.8167 89.0161 51.2417 88.7661 51.775C88.5161 52.3083 88.3911 52.8833 88.3911 53.5C88.3911 54.4667 88.6828 55.275 89.2661 55.925C89.8661 56.5583 90.6244 56.875 91.5411 56.875C92.0911 56.875 92.6161 56.7167 93.1161 56.4C93.6328 56.0667 94.0244 55.6167 94.2911 55.05ZM101.249 55.275V46.875H105.249V54.4C105.249 56.05 105.857 56.875 107.074 56.875C107.607 56.875 108.124 56.7333 108.624 56.45C109.124 56.15 109.565 55.6583 109.949 54.975V46.875H113.949V55.55C113.949 55.95 114.007 56.2333 114.124 56.4C114.257 56.5667 114.482 56.6583 114.799 56.675V60C114.415 60.0667 114.09 60.1167 113.824 60.15C113.557 60.1833 113.315 60.2 113.099 60.2C111.665 60.2 110.849 59.6417 110.649 58.525L110.574 57.725C109.974 58.5917 109.224 59.2333 108.324 59.65C107.44 60.05 106.449 60.25 105.349 60.25C104.015 60.25 102.999 59.825 102.299 58.975C101.599 58.125 101.249 56.8917 101.249 55.275ZM123.322 60.25C121.856 60.25 120.589 59.9333 119.522 59.3C118.472 58.6667 117.664 57.8333 117.097 56.8C116.547 55.7667 116.272 54.6417 116.272 53.425C116.272 52.225 116.547 51.1083 117.097 50.075C117.664 49.0417 118.472 48.2083 119.522 47.575C120.572 46.9417 121.839 46.625 123.322 46.625C124.822 46.625 126.089 46.95 127.122 47.6C128.172 48.2333 128.956 49.0667 129.472 50.1L125.572 51.275C125.056 50.4417 124.297 50.025 123.297 50.025C122.481 50.025 121.789 50.3333 121.222 50.95C120.656 51.5667 120.372 52.3917 120.372 53.425C120.372 54.4583 120.656 55.2917 121.222 55.925C121.789 56.5583 122.481 56.875 123.297 56.875C123.797 56.875 124.256 56.7583 124.672 56.525C125.089 56.275 125.397 55.9583 125.597 55.575L129.497 56.775C129.014 57.7917 128.239 58.625 127.172 59.275C126.122 59.925 124.839 60.25 123.322 60.25ZM139.805 59.3C139.255 59.5333 138.622 59.75 137.905 59.95C137.205 60.15 136.497 60.25 135.78 60.25C135.114 60.25 134.505 60.1417 133.955 59.925C133.405 59.6917 132.964 59.3167 132.63 58.8C132.297 58.2833 132.13 57.6 132.13 56.75V49.9H130.455V46.875H132.13V42.7H136.13V46.875H138.805V49.9H136.13V55.375C136.13 55.8083 136.239 56.125 136.455 56.325C136.672 56.5083 136.947 56.6 137.28 56.6C137.58 56.6 137.889 56.55 138.205 56.45C138.522 56.35 138.797 56.2417 139.03 56.125L139.805 59.3ZM141.239 63.6V60H150.239V63.6H141.239ZM152.713 55.275V46.875H156.713V54.4C156.713 56.05 157.322 56.875 158.538 56.875C159.072 56.875 159.588 56.7333 160.088 56.45C160.588 56.15 161.03 55.6583 161.413 54.975V46.875H165.413V55.55C165.413 55.95 165.472 56.2333 165.588 56.4C165.722 56.5667 165.947 56.6583 166.263 56.675V60C165.88 60.0667 165.555 60.1167 165.288 60.15C165.022 60.1833 164.78 60.2 164.563 60.2C163.13 60.2 162.313 59.6417 162.113 58.525L162.038 57.725C161.438 58.5917 160.688 59.2333 159.788 59.65C158.905 60.05 157.913 60.25 156.813 60.25C155.48 60.25 154.463 59.825 153.763 58.975C153.063 58.125 152.713 56.8917 152.713 55.275ZM176.837 50.3C175.871 50.3167 174.996 50.475 174.212 50.775C173.429 51.075 172.862 51.525 172.512 52.125V60H168.512V46.875H172.187V49.525C172.637 48.6417 173.221 47.95 173.937 47.45C174.654 46.95 175.404 46.6917 176.187 46.675C176.521 46.675 176.737 46.6833 176.837 46.7V50.3ZM178.472 41.75H182.472V55.325C182.472 55.875 182.572 56.2667 182.772 56.5C182.972 56.7333 183.255 56.85 183.622 56.85C183.872 56.85 184.122 56.8167 184.372 56.75C184.639 56.6667 184.872 56.575 185.072 56.475L185.597 59.475C185.097 59.7083 184.522 59.8917 183.872 60.025C183.222 60.1583 182.614 60.225 182.047 60.225C180.914 60.225 180.03 59.925 179.397 59.325C178.78 58.725 178.472 57.8583 178.472 56.725V41.75Z" fill="black"/>
</svg>
