<svg width="373" height="239" viewBox="0 0 373 239" fill="none" xmlns="http://www.w3.org/2000/svg">
<path d="M0 30C0 13.4315 13.4315 0 30 0H343C359.569 0 373 13.4315 373 30V209C373 225.569 359.569 239 343 239H30C13.4315 239 0 225.569 0 209V30Z" fill="#C4C4C4"/>
<path d="M243.039 82V59.23L233.634 76.51H230.664L221.214 59.23V82H216.174V50.05H221.574L232.149 69.58L242.724 50.05H248.124V82H243.039ZM269.504 82.225C267.224 82.225 265.139 81.775 263.249 80.875C261.389 79.975 259.784 78.76 258.434 77.23C257.084 75.67 256.034 73.93 255.284 72.01C254.564 70.06 254.204 68.065 254.204 66.025C254.204 63.895 254.594 61.87 255.374 59.95C256.154 58 257.234 56.275 258.614 54.775C259.994 53.245 261.614 52.045 263.474 51.175C265.364 50.275 267.404 49.825 269.594 49.825C271.874 49.825 273.944 50.29 275.804 51.22C277.694 52.15 279.299 53.395 280.619 54.955C281.969 56.515 283.004 58.255 283.724 60.175C284.474 62.095 284.849 64.06 284.849 66.07C284.849 68.2 284.459 70.24 283.679 72.19C282.929 74.11 281.864 75.835 280.484 77.365C279.104 78.865 277.469 80.05 275.579 80.92C273.719 81.79 271.694 82.225 269.504 82.225ZM259.334 66.025C259.334 68.035 259.754 69.94 260.594 71.74C261.434 73.51 262.604 74.95 264.104 76.06C265.634 77.14 267.449 77.68 269.549 77.68C271.139 77.68 272.564 77.35 273.824 76.69C275.084 76.03 276.149 75.145 277.019 74.035C277.889 72.895 278.549 71.635 278.999 70.255C279.449 68.875 279.674 67.465 279.674 66.025C279.674 64.015 279.254 62.125 278.414 60.355C277.604 58.585 276.434 57.16 274.904 56.08C273.374 54.97 271.589 54.415 269.549 54.415C267.929 54.415 266.489 54.745 265.229 55.405C263.969 56.065 262.904 56.95 262.034 58.06C261.164 59.17 260.489 60.415 260.009 61.795C259.559 63.175 259.334 64.585 259.334 66.025ZM309.823 57.565C309.433 57.115 308.788 56.65 307.888 56.17C307.018 55.66 305.998 55.225 304.828 54.865C303.658 54.505 302.443 54.325 301.183 54.325C299.053 54.325 297.478 54.715 296.458 55.495C295.468 56.275 294.973 57.355 294.973 58.735C294.973 59.755 295.258 60.565 295.828 61.165C296.398 61.735 297.268 62.23 298.438 62.65C299.608 63.04 301.078 63.445 302.848 63.865C305.008 64.375 306.868 64.99 308.428 65.71C310.018 66.4 311.233 67.33 312.073 68.5C312.943 69.67 313.378 71.215 313.378 73.135C313.378 75.325 312.853 77.095 311.803 78.445C310.753 79.795 309.328 80.785 307.528 81.415C305.758 82.015 303.808 82.315 301.678 82.315C299.248 82.315 296.893 81.94 294.613 81.19C292.333 80.44 290.293 79.375 288.493 77.995L290.788 73.675C291.298 74.185 292.108 74.77 293.218 75.43C294.328 76.06 295.618 76.615 297.088 77.095C298.588 77.545 300.148 77.77 301.768 77.77C303.748 77.77 305.278 77.425 306.358 76.735C307.438 76.015 307.978 74.995 307.978 73.675C307.978 72.595 307.618 71.74 306.898 71.11C306.208 70.45 305.203 69.91 303.883 69.49C302.593 69.04 301.033 68.575 299.203 68.095C297.103 67.555 295.348 66.94 293.938 66.25C292.528 65.56 291.463 64.69 290.743 63.64C290.053 62.59 289.708 61.225 289.708 59.545C289.708 57.445 290.218 55.675 291.238 54.235C292.258 52.765 293.638 51.67 295.378 50.95C297.148 50.2 299.128 49.825 301.318 49.825C303.478 49.825 305.473 50.17 307.303 50.86C309.133 51.55 310.738 52.405 312.118 53.425L309.823 57.565ZM342.778 54.505H332.158V82H327.073V54.505H316.408V50.05H342.778V54.505ZM166.166 135V103.05H180.071C181.511 103.05 182.831 103.35 184.031 103.95C185.231 104.55 186.266 105.345 187.136 106.335C188.036 107.325 188.726 108.435 189.206 109.665C189.716 110.895 189.971 112.155 189.971 113.445C189.971 114.885 189.701 116.25 189.161 117.54C188.651 118.8 187.931 119.895 187.001 120.825C186.071 121.755 184.976 122.43 183.716 122.85L191.231 135H185.561L178.631 123.885H171.206V135H166.166ZM171.206 119.43H180.026C180.956 119.43 181.781 119.16 182.501 118.62C183.221 118.05 183.791 117.315 184.211 116.415C184.631 115.515 184.841 114.525 184.841 113.445C184.841 112.335 184.601 111.345 184.121 110.475C183.641 109.575 183.011 108.855 182.231 108.315C181.451 107.775 180.626 107.505 179.756 107.505H171.206V119.43ZM218.732 130.545V135H196.817V103.05H218.327V107.505H201.857V116.595H216.122V120.78H201.857V130.545H218.732ZM222.235 118.8C222.235 116.85 222.58 114.93 223.27 113.04C223.96 111.15 224.965 109.44 226.285 107.91C227.635 106.38 229.255 105.165 231.145 104.265C233.065 103.335 235.255 102.87 237.715 102.87C240.595 102.87 243.085 103.515 245.185 104.805C247.285 106.095 248.845 107.775 249.865 109.845L245.905 112.5C245.305 111.21 244.54 110.205 243.61 109.485C242.71 108.735 241.72 108.21 240.64 107.91C239.59 107.58 238.555 107.415 237.535 107.415C235.855 107.415 234.385 107.76 233.125 108.45C231.865 109.11 230.8 109.995 229.93 111.105C229.09 112.215 228.445 113.46 227.995 114.84C227.575 116.22 227.365 117.6 227.365 118.98C227.365 121.05 227.8 122.985 228.67 124.785C229.57 126.555 230.785 127.995 232.315 129.105C233.875 130.185 235.66 130.725 237.67 130.725C238.69 130.725 239.755 130.545 240.865 130.185C241.975 129.825 242.995 129.27 243.925 128.52C244.855 127.74 245.605 126.72 246.175 125.46L250.36 127.845C249.7 129.435 248.665 130.785 247.255 131.895C245.875 133.005 244.315 133.845 242.575 134.415C240.865 134.985 239.17 135.27 237.49 135.27C235.24 135.27 233.185 134.805 231.325 133.875C229.465 132.915 227.86 131.655 226.51 130.095C225.16 128.505 224.11 126.735 223.36 124.785C222.61 122.805 222.235 120.81 222.235 118.8ZM277.836 130.545V135H255.921V103.05H277.431V107.505H260.961V116.595H275.226V120.78H260.961V130.545H277.836ZM288.976 112.41V135H283.936V103.05H288.076L306.166 126.135V103.095H311.251V135H306.841L288.976 112.41ZM342.778 107.505H332.158V135H327.073V107.505H316.408V103.05H342.778V107.505ZM278.75 188V156.05H300.035V160.505H283.79V170.045H297.38V174.23H283.79V188H278.75ZM305.71 188V156.05H310.75V188H305.71ZM342.316 160.505H331.696V188H326.611V160.505H315.946V156.05H342.316V160.505Z" fill="black"/>
</svg>
