<svg width="257" height="117" viewBox="0 0 257 117" fill="none" xmlns="http://www.w3.org/2000/svg">
<path d="M0 32C0 14.3269 14.3269 0 32 0H225C242.673 0 257 14.3269 257 32V85C257 102.673 242.673 117 225 117H32C14.3269 117 0 102.673 0 85V32Z" fill="#E4FFB1"/>
<path d="M59.6986 69.3C58.3386 69.3 57.0186 69.08 55.7386 68.64C54.4786 68.18 53.4086 67.53 52.5286 66.69L54.1786 63.66C56.1186 65.08 57.9086 65.79 59.5486 65.79C60.1686 65.79 60.6486 65.69 60.9886 65.49C61.3286 65.29 61.4986 64.98 61.4986 64.56C61.4986 64.12 61.2686 63.81 60.8086 63.63C60.3486 63.43 59.6686 63.2 58.7686 62.94C57.5686 62.54 56.5686 62.15 55.7686 61.77C54.9686 61.39 54.3686 60.93 53.9686 60.39C53.5686 59.85 53.3686 59.13 53.3686 58.23C53.3686 56.65 53.9586 55.38 55.1386 54.42C56.3186 53.44 57.9186 52.95 59.9386 52.95C61.0186 52.95 62.0686 53.12 63.0886 53.46C64.1286 53.8 65.0986 54.37 65.9986 55.17L64.1386 58.17C63.2386 57.55 62.4386 57.1 61.7386 56.82C61.0386 56.54 60.3586 56.4 59.6986 56.4C59.1786 56.4 58.7386 56.5 58.3786 56.7C58.0186 56.88 57.8386 57.2 57.8386 57.66C57.8386 58.1 58.0386 58.43 58.4386 58.65C58.8386 58.85 59.4586 59.07 60.2986 59.31C61.5786 59.69 62.6486 60.08 63.5086 60.48C64.3886 60.86 65.0386 61.34 65.4586 61.92C65.8986 62.48 66.1186 63.23 66.1186 64.17C66.1186 65.77 65.5386 67.03 64.3786 67.95C63.2186 68.85 61.6586 69.3 59.6986 69.3ZM67.5907 64.29C67.5907 63.25 67.8807 62.34 68.4607 61.56C69.0407 60.78 69.8407 60.17 70.8607 59.73C71.8807 59.27 73.0507 59.04 74.3707 59.04C75.0107 59.04 75.6407 59.1 76.2607 59.22C76.8807 59.32 77.4207 59.47 77.8807 59.67V58.98C77.8807 57.2 76.8307 56.31 74.7307 56.31C73.8507 56.31 73.0207 56.46 72.2407 56.76C71.4807 57.06 70.6707 57.49 69.8107 58.05L68.3707 54.99C70.4507 53.63 72.7307 52.95 75.2107 52.95C77.5707 52.95 79.4007 53.52 80.7007 54.66C82.0207 55.78 82.6807 57.41 82.6807 59.55V63.66C82.6807 64.14 82.7507 64.48 82.8907 64.68C83.0507 64.88 83.3207 64.99 83.7007 65.01V69C83.2807 69.08 82.9007 69.14 82.5607 69.18C82.2207 69.22 81.9207 69.24 81.6607 69.24C80.7607 69.24 80.0707 69.06 79.5907 68.7C79.1307 68.34 78.8407 67.85 78.7207 67.23L78.6307 66.54C77.9307 67.44 77.0907 68.13 76.1107 68.61C75.1307 69.07 74.1207 69.3 73.0807 69.3C72.0407 69.3 71.1007 69.08 70.2607 68.64C69.4407 68.2 68.7907 67.61 68.3107 66.87C67.8307 66.11 67.5907 65.25 67.5907 64.29ZM77.1307 64.89C77.6307 64.49 77.8807 64.08 77.8807 63.66V62.25C77.4607 62.09 77.0007 61.97 76.5007 61.89C76.0207 61.79 75.5807 61.74 75.1807 61.74C74.2807 61.74 73.5407 61.94 72.9607 62.34C72.4007 62.74 72.1207 63.25 72.1207 63.87C72.1207 64.41 72.3307 64.88 72.7507 65.28C73.1907 65.66 73.7707 65.85 74.4907 65.85C74.9707 65.85 75.4507 65.76 75.9307 65.58C76.4107 65.4 76.8107 65.17 77.1307 64.89ZM89.5943 69L84.0143 53.25H88.9643L92.4143 64.68L95.8643 53.25H100.364L94.8143 69H89.5943ZM109.187 69.3C107.407 69.3 105.887 68.93 104.627 68.19C103.367 67.45 102.397 66.47 101.717 65.25C101.057 64.03 100.727 62.71 100.727 61.29C100.727 59.77 101.057 58.38 101.717 57.12C102.377 55.86 103.337 54.85 104.597 54.09C105.857 53.33 107.387 52.95 109.187 52.95C110.967 52.95 112.487 53.33 113.747 54.09C115.007 54.85 115.957 55.85 116.597 57.09C117.257 58.33 117.587 59.66 117.587 61.08C117.587 61.66 117.547 62.17 117.467 62.61H105.827C105.907 63.67 106.287 64.48 106.967 65.04C107.667 65.58 108.457 65.85 109.337 65.85C110.037 65.85 110.707 65.68 111.347 65.34C111.987 65 112.427 64.54 112.667 63.96L116.747 65.1C116.127 66.34 115.157 67.35 113.837 68.13C112.537 68.91 110.987 69.3 109.187 69.3ZM105.707 59.67H112.547C112.447 58.67 112.077 57.88 111.437 57.3C110.817 56.7 110.047 56.4 109.127 56.4C108.207 56.4 107.427 56.7 106.787 57.3C106.167 57.9 105.807 58.69 105.707 59.67ZM134.264 69.3C132.464 69.3 130.934 68.92 129.674 68.16C128.434 67.4 127.484 66.4 126.824 65.16C126.164 63.92 125.834 62.58 125.834 61.14C125.834 59.68 126.164 58.33 126.824 57.09C127.484 55.85 128.444 54.85 129.704 54.09C130.964 53.33 132.484 52.95 134.264 52.95C136.044 52.95 137.564 53.33 138.824 54.09C140.084 54.85 141.044 55.85 141.704 57.09C142.364 58.33 142.694 59.68 142.694 61.14C142.694 62.58 142.364 63.92 141.704 65.16C141.044 66.4 140.084 67.4 138.824 68.16C137.564 68.92 136.044 69.3 134.264 69.3ZM130.754 61.14C130.754 62.36 131.084 63.35 131.744 64.11C132.424 64.87 133.264 65.25 134.264 65.25C135.244 65.25 136.064 64.87 136.724 64.11C137.404 63.35 137.744 62.36 137.744 61.14C137.744 59.92 137.404 58.93 136.724 58.17C136.064 57.41 135.244 57.03 134.264 57.03C133.264 57.03 132.424 57.41 131.744 58.17C131.084 58.93 130.754 59.92 130.754 61.14ZM144.925 63.33V53.25H149.725V62.28C149.725 64.26 150.455 65.25 151.915 65.25C152.555 65.25 153.175 65.08 153.775 64.74C154.375 64.38 154.905 63.79 155.365 62.97V53.25H160.165V63.66C160.165 64.14 160.235 64.48 160.375 64.68C160.535 64.88 160.805 64.99 161.185 65.01V69C160.725 69.08 160.335 69.14 160.015 69.18C159.695 69.22 159.405 69.24 159.145 69.24C157.425 69.24 156.445 68.57 156.205 67.23L156.115 66.27C155.395 67.31 154.495 68.08 153.415 68.58C152.355 69.06 151.165 69.3 149.845 69.3C148.245 69.3 147.025 68.79 146.185 67.77C145.345 66.75 144.925 65.27 144.925 63.33ZM173.996 68.16C173.336 68.44 172.576 68.7 171.716 68.94C170.876 69.18 170.026 69.3 169.166 69.3C168.366 69.3 167.636 69.17 166.976 68.91C166.316 68.63 165.786 68.18 165.386 67.56C164.986 66.94 164.786 66.12 164.786 65.1V56.88H162.776V53.25H164.786V48.24H169.586V53.25H172.796V56.88H169.586V63.45C169.586 63.97 169.716 64.35 169.976 64.59C170.236 64.81 170.566 64.92 170.966 64.92C171.326 64.92 171.696 64.86 172.076 64.74C172.456 64.62 172.786 64.49 173.066 64.35L173.996 68.16ZM176.798 58.17H174.788V54.54H176.798V53.25C176.798 52.01 177.078 50.91 177.638 49.95C178.198 48.97 178.978 48.2 179.978 47.64C180.998 47.08 182.198 46.8 183.578 46.8C184.718 46.8 185.788 46.99 186.788 47.37C187.808 47.75 188.838 48.28 189.878 48.96L188.018 52.59C187.418 52.05 186.748 51.63 186.008 51.33C185.288 51.01 184.578 50.85 183.878 50.85C183.138 50.85 182.568 51.06 182.168 51.48C181.788 51.9 181.598 52.43 181.598 53.07V54.54H190.298V69H185.498V58.17H181.598V69H176.798V58.17ZM203.761 68.16C203.101 68.44 202.341 68.7 201.481 68.94C200.641 69.18 199.791 69.3 198.931 69.3C198.131 69.3 197.401 69.17 196.741 68.91C196.081 68.63 195.551 68.18 195.151 67.56C194.751 66.94 194.551 66.12 194.551 65.1V56.88H192.541V53.25H194.551V48.24H199.351V53.25H202.561V56.88H199.351V63.45C199.351 63.97 199.481 64.35 199.741 64.59C200.001 64.81 200.331 64.92 200.731 64.92C201.091 64.92 201.461 64.86 201.841 64.74C202.221 64.62 202.551 64.49 202.831 64.35L203.761 68.16Z" fill="black"/>
</svg>
