<svg width="309" height="142" viewBox="0 0 309 142" fill="none" xmlns="http://www.w3.org/2000/svg">
<path d="M0 30C0 13.4315 13.4315 0 30 0H279C295.569 0 309 13.4315 309 30V112C309 128.569 295.569 142 279 142H30C13.4315 142 0 128.569 0 112V30Z" fill="#C4C4C4"/>
<path d="M91.4955 57.565C91.1055 57.115 90.4605 56.65 89.5605 56.17C88.6905 55.66 87.6705 55.225 86.5005 54.865C85.3305 54.505 84.1155 54.325 82.8555 54.325C80.7255 54.325 79.1505 54.715 78.1305 55.495C77.1405 56.275 76.6455 57.355 76.6455 58.735C76.6455 59.755 76.9305 60.565 77.5005 61.165C78.0705 61.735 78.9405 62.23 80.1105 62.65C81.2805 63.04 82.7505 63.445 84.5205 63.865C86.6805 64.375 88.5405 64.99 90.1005 65.71C91.6905 66.4 92.9055 67.33 93.7455 68.5C94.6155 69.67 95.0505 71.215 95.0505 73.135C95.0505 75.325 94.5255 77.095 93.4755 78.445C92.4255 79.795 91.0005 80.785 89.2005 81.415C87.4305 82.015 85.4805 82.315 83.3505 82.315C80.9205 82.315 78.5655 81.94 76.2855 81.19C74.0055 80.44 71.9655 79.375 70.1655 77.995L72.4605 73.675C72.9705 74.185 73.7805 74.77 74.8905 75.43C76.0005 76.06 77.2905 76.615 78.7605 77.095C80.2605 77.545 81.8205 77.77 83.4405 77.77C85.4205 77.77 86.9505 77.425 88.0305 76.735C89.1105 76.015 89.6505 74.995 89.6505 73.675C89.6505 72.595 89.2905 71.74 88.5705 71.11C87.8805 70.45 86.8755 69.91 85.5555 69.49C84.2655 69.04 82.7055 68.575 80.8755 68.095C78.7755 67.555 77.0205 66.94 75.6105 66.25C74.2005 65.56 73.1355 64.69 72.4155 63.64C71.7255 62.59 71.3805 61.225 71.3805 59.545C71.3805 57.445 71.8905 55.675 72.9105 54.235C73.9305 52.765 75.3105 51.67 77.0505 50.95C78.8205 50.2 80.8005 49.825 82.9905 49.825C85.1505 49.825 87.1455 50.17 88.9755 50.86C90.8055 51.55 92.4105 52.405 93.7905 53.425L91.4955 57.565ZM101.005 82V50.05H106.045V82H101.005ZM127.216 82.225C125.086 82.225 123.106 81.79 121.276 80.92C119.476 80.05 117.886 78.85 116.506 77.32C115.156 75.79 114.091 74.05 113.311 72.1C112.561 70.15 112.186 68.08 112.186 65.89C112.186 63.73 112.561 61.69 113.311 59.77C114.061 57.82 115.126 56.11 116.506 54.64C117.886 53.14 119.491 51.97 121.321 51.13C123.181 50.26 125.206 49.825 127.396 49.825C130.426 49.825 132.976 50.47 135.046 51.76C137.116 53.02 138.691 54.7 139.771 56.8L135.901 59.59C135.031 57.85 133.831 56.545 132.301 55.675C130.771 54.805 129.091 54.37 127.261 54.37C125.251 54.37 123.496 54.925 121.996 56.035C120.496 57.115 119.341 58.54 118.531 60.31C117.721 62.08 117.316 63.985 117.316 66.025C117.316 68.185 117.766 70.15 118.666 71.92C119.566 73.66 120.781 75.055 122.311 76.105C123.871 77.155 125.641 77.68 127.621 77.68C130.921 77.68 133.891 76.105 136.531 72.955V69.58H129.826V65.845H140.761V82H136.531V78.04C133.861 80.83 130.756 82.225 127.216 82.225ZM152.45 59.41V82H147.41V50.05H151.55L169.64 73.135V50.095H174.725V82H170.315L152.45 59.41ZM208.145 82.225C205.625 82.225 203.48 81.79 201.71 80.92C199.94 80.05 198.515 78.865 197.435 77.365C196.355 75.835 195.575 74.125 195.095 72.235C194.615 70.315 194.375 68.32 194.375 66.25V50.05H199.415V66.25C199.415 67.72 199.565 69.145 199.865 70.525C200.165 71.875 200.645 73.09 201.305 74.17C201.965 75.25 202.85 76.105 203.96 76.735C205.1 77.365 206.495 77.68 208.145 77.68C209.825 77.68 211.22 77.365 212.33 76.735C213.47 76.075 214.37 75.205 215.03 74.125C215.69 73.015 216.155 71.785 216.425 70.435C216.725 69.085 216.875 67.69 216.875 66.25V50.05H221.96V66.25C221.96 68.44 221.69 70.495 221.15 72.415C220.64 74.335 219.83 76.03 218.72 77.5C217.64 78.97 216.215 80.125 214.445 80.965C212.705 81.805 210.605 82.225 208.145 82.225ZM229.563 82V50.05H242.973C244.413 50.05 245.733 50.35 246.933 50.95C248.163 51.55 249.213 52.345 250.083 53.335C250.983 54.325 251.673 55.435 252.153 56.665C252.633 57.895 252.873 59.155 252.873 60.445C252.873 62.245 252.468 63.94 251.658 65.53C250.848 67.12 249.723 68.41 248.283 69.4C246.843 70.39 245.163 70.885 243.243 70.885H234.603V82H229.563ZM234.603 66.43H242.928C244.338 66.43 245.493 65.86 246.393 64.72C247.293 63.58 247.743 62.155 247.743 60.445C247.743 59.275 247.503 58.255 247.023 57.385C246.543 56.485 245.913 55.78 245.133 55.27C244.383 54.76 243.558 54.505 242.658 54.505H234.603V66.43Z" fill="black"/>
</svg>
